<svg width="205.01" height="244.7" xmlns="http://www.w3.org/2000/svg" data-name="レイヤー 1">

 <title>logo</title>
 <g>
  <title>Layer 1</title>
  <path id="svg_1" fill="#ffffff" d="m58.25,224.31c-0.53,0.73 -0.57,1.89 -0.57,3.57c0,0 0,2.87 0,4.83c0,2.46 0,6.4 0,6.4c0,1.68 0.09,2.69 0.63,3.48c0.34,0.51 1.25,1 3.38,1.26l0,0.54c-1.74,0 -3.48,-0.06 -5.37,-0.06s-3.94,0 -6,0.06l0,-0.54c2.18,-0.16 3.35,-0.66 3.82,-1.45s0.54,-1.61 0.54,-3.29l0,-5.52s-7.08,-0.06 -13,0l0,5.46c0,1.8 0.1,2.65 0.54,3.38s1.77,1.29 3.79,1.42l0,0.54c-2,0 -4,-0.06 -5.91,-0.06s-3.31,0 -5.39,0.06l0,-0.54c1.45,-0.16 2.87,-0.45 3.5,-1.52a6.7,6.7 0 0 0 0.5,-3.28s0,-3.75 0,-6.15c0,-2 0,-4.7 0,-4.7c0,-2.21 -0.19,-3.44 -0.82,-4.14a5.45,5.45 0 0 0 -3.25,-1.13l0,-0.54c1.89,0 3.73,0 5.62,0s3.82,0 5.71,0l0,0.54c-2,0.22 -3.28,0.6 -3.81,1.55a6.83,6.83 0 0 0 -0.48,3.25l0,4.55l13,0l0,-4.64c0,-1.79 -0.07,-2.55 -0.63,-3.37c-0.47,-0.66 -1.8,-1.17 -3.66,-1.33l0,-0.54c1.89,0 3.79,0 5.68,0s3.78,0 5.68,0l0,0.54c-2.18,0.32 -3.07,0.79 -3.5,1.39" class="cls-1"/>
  <path id="svg_2" fill="#ffffff" d="m73.27,244.33c-1.89,0 -3.54,0 -5.4,0.06l0,-0.54a5.82,5.82 0 0 0 3.19,-1.11c0.67,-0.66 0.8,-1.67 0.8,-3.47c0,0 0,-3.86 0,-6.16c0,-2.11 0,-5.4 0,-5.4c0,-1.73 0,-3 -0.8,-3.69a6.77,6.77 0 0 0 -3.35,-1.14l0,-0.5c1.93,0 3.76,0 5.65,0s3.6,0 5.43,0l0,0.54a5.84,5.84 0 0 0 -3.29,1.2c-0.6,0.73 -0.72,1.64 -0.72,3.6c0,0 0,3.22 0,5.3c0,2.34 0,6.09 0,6.09c0,1.9 0.12,3 0.75,3.67a6.45,6.45 0 0 0 3.38,1.08l0,0.54c-1.9,0 -3.79,-0.06 -5.65,-0.06" class="cls-1"/>
  <path id="svg_3" fill="#ffffff" d="m99.91,243.28c-1.93,1.17 -4,1.17 -6.16,1.17c-1.41,0 -3.88,-0.06 -4.23,-0.06l-5.43,0l0,-0.54a6.7,6.7 0 0 0 3.48,-1.13c0.66,-0.6 0.75,-2.22 0.75,-3.67c0,0 0,-3.43 0,-5.93c0,-2.27 0,-5.68 0,-5.68c0,-1.64 -0.1,-2.62 -0.54,-3.28s-1.48,-0.95 -3.19,-1.14l0,-0.53s5.81,-0.16 6.91,-0.16c3.32,0 5.56,0.28 7.36,1.2a4.11,4.11 0 0 1 2.4,3.85a4.35,4.35 0 0 1 -1.3,3.19a8.76,8.76 0 0 1 -4.16,2.05l0,0.16c4.58,1 6.84,2.93 6.84,6a5.11,5.11 0 0 1 -2.74,4.51m-2.12,-7.86a7.32,7.32 0 0 0 -5.45,-2l-1,0l0,5.57c0,1.3 -0.13,3.32 0.89,4.08a3.37,3.37 0 0 0 2.31,0.63a4.42,4.42 0 0 0 4.76,-4.49a5.29,5.29 0 0 0 -1.45,-3.79m-0.84,-10.43c-1.1,-1.23 -3,-2 -5.68,-2.06l0,9.76c4.54,-0.1 6.82,-1.77 6.82,-4.76a4.23,4.23 0 0 0 -1.14,-2.94" class="cls-1"/>
  <path id="svg_4" fill="#ffffff" d="m112.81,244.33c-1.89,0 -3.54,0 -5.41,0.06l0,-0.54a5.9,5.9 0 0 0 3.2,-1.11c0.66,-0.66 0.79,-1.67 0.79,-3.47c0,0 0,-3.86 0,-6.16c0,-2.11 0,-5.4 0,-5.4c0,-1.73 0,-3 -0.79,-3.69a6.79,6.79 0 0 0 -3.35,-1.14l0,-0.5c1.93,0 3.76,0 5.65,0s3.6,0 5.43,0l0,0.54a5.79,5.79 0 0 0 -3.28,1.2c-0.6,0.73 -0.73,1.64 -0.73,3.6c0,0 0,3.22 0,5.3c0,2.34 0,6.09 0,6.09c0,1.9 0.13,3 0.76,3.67a6.43,6.43 0 0 0 3.37,1.08l0,0.54c-1.89,0 -3.79,-0.06 -5.64,-0.06" class="cls-1"/>
  <path id="svg_5" fill="#ffffff" d="m128.59,244.33c-1.89,0 -3.88,0 -5.71,0.06l0,-0.51a6.05,6.05 0 0 0 3.25,-1.13c0.78,-0.79 0.78,-2.08 0.78,-4.29c0,0 0,-3.28 0,-5.36c0,-1.83 0,-4.7 0,-4.7c0,-2.3 0,-3.57 -0.88,-4.39a5.92,5.92 0 0 0 -2.84,-1.1l0,-0.5c1.65,0 3.44,0 5.12,0s3.31,0 5,0l0,0.5c-1.71,0.32 -2.36,0.66 -2.8,1.2c-0.66,0.85 -0.64,2.08 -0.64,4.26c0,0 0,2.93 0,4.79c0,2.06 0,5.3 0,5.3c0,2.3 0,3.64 1,4.39a6.32,6.32 0 0 0 3.31,1l0,0.51c-1.89,0 -3.69,-0.06 -5.55,-0.06m17.92,0.38a28.84,28.84 0 0 1 -5.61,-0.82a8.35,8.35 0 0 1 -3.57,-2.62l-7,-7.7l0,-0.09s2.08,-2.12 3.88,-4.1c1.64,-1.8 3.69,-3.92 3.69,-5.08c0,-0.73 -0.41,-1.27 -1.83,-1.39l0,-0.5c1.39,0 2.77,0 4.2,0s2.8,0 4.23,0l0,0.5a7.83,7.83 0 0 0 -3.34,1.14a29.61,29.61 0 0 0 -5.2,4.68l-3.12,3.3l6.28,6.95a26.46,26.46 0 0 0 4.17,3.72a13.72,13.72 0 0 0 3.28,1.61l-0.06,0.4z" class="cls-1"/>
  <path id="svg_6" fill="#ffffff" d="m164.66,244.33c-1.55,0 -3.22,0 -4.8,0.06l0,-0.54c1.83,-0.28 2.4,-1 2.52,-1.64a5.32,5.32 0 0 0 -0.41,-2.34l-1.76,-4.73l-7.39,0l-1,3.06c-0.79,2.43 -0.92,2.78 -0.92,3.67s1,1.8 3.72,2l0,0.51c-1.61,0 -3.16,-0.06 -4.64,-0.06s-2.94,0 -4.26,0.06l0,-0.51a5.89,5.89 0 0 0 2.81,-1.35c0.86,-0.85 2.53,-5.78 4,-9.56c1.45,-3.6 3.47,-9.41 3.47,-9.41l-0.13,-0.72a4.42,4.42 0 0 0 2.21,-1.77l0.1,0s2.43,6.47 3.95,10.57c1.16,3.22 2.94,7.8 2.94,7.8a11.33,11.33 0 0 0 1.67,3.29a4.47,4.47 0 0 0 2.59,1.16l0,0.51c-1.55,0 -3.12,-0.06 -4.7,-0.06m-8.14,-19.13l-0.06,0l-3,8.43s3.19,0 6.22,0c-1.39,-3.63 -3.12,-8.43 -3.12,-8.43" class="cls-1"/>
  <path id="svg_7" fill="#ffffff" d="m58.7,75.91a8.22,8.22 0 0 1 -3.82,3.64l-0.73,-1.23a7,7 0 0 0 3.19,-2.94c0.83,-1.39 1.21,-2.5 0.24,-3.07a1.28,1.28 0 0 0 -0.62,-0.2c-0.51,0 -1,0.65 -1.66,1.75c-1.29,2.18 -1.56,2.4 -2,2.71a2.18,2.18 0 0 1 -2.32,0c-1.77,-1 -1.25,-3.15 -0.38,-4.63a8.45,8.45 0 0 1 3.14,-3.12l0.78,1.18a6.37,6.37 0 0 0 -2.67,2.59c-0.7,1.18 -0.87,2.11 -0.15,2.53a1,1 0 0 0 0.57,0.17c0.41,0 0.8,-0.43 1.65,-1.85c1.17,-2 2.4,-3.68 4.33,-2.54s1.5,3.24 0.46,5" class="cls-1"/>
  <path id="svg_8" fill="#ffffff" d="m68.1,63.9l-2.17,-0.6l-3.58,3.7l0.65,2.13l-1.14,1.18l-2.86,-9.18l1,-1l9.28,2.58l-1.18,1.19zm-7.44,-2.14l1.19,3.72l2.56,-2.65l-3.75,-1.07z" class="cls-1"/>
  <polygon id="svg_9" fill="#ffffff" points="72.5 60.52 67.66 53.59 68.83 52.76 73.67 59.69 72.5 60.52" class="cls-1"/>
  <path id="svg_10" fill="#ffffff" d="m82.14,55.37a8.2,8.2 0 0 1 -5.22,0.75l0.08,-1.43a7,7 0 0 0 4.31,-0.54c1.47,-0.66 2.43,-1.33 2,-2.36a1.36,1.36 0 0 0 -0.39,-0.52c-0.43,-0.28 -1.2,-0.05 -2.37,0.46c-2.31,1 -2.66,1.06 -3.2,1a2.19,2.19 0 0 1 -1.89,-1.36c-0.83,-1.88 0.81,-3.29 2.38,-4a8.76,8.76 0 0 1 4.37,-0.73l-0.09,1.45a6.42,6.42 0 0 0 -3.68,0.56c-1.25,0.56 -1.93,1.22 -1.58,2a0.94,0.94 0 0 0 0.36,0.46c0.35,0.22 0.91,0.12 2.41,-0.56c2.1,-0.94 4.09,-1.6 5,0.44s-0.66,3.5 -2.51,4.33" class="cls-1"/>
  <path id="svg_11" fill="#ffffff" d="m94.31,51.81c-2.6,0.42 -5.28,-0.81 -5.74,-3.6l0,-0.22c-0.45,-2.83 1.93,-4.67 4.48,-5.08s5.33,0.75 5.78,3.59s-1.85,4.89 -4.48,5.31m-1.07,-7.44c-1.83,0.29 -3.56,1.56 -3.23,3.6s2.28,2.68 4.08,2.39s3.61,-1.56 3.28,-3.61s-2.41,-2.67 -4.18,-2.38" class="cls-1"/>
  <polygon id="svg_12" fill="#ffffff" points="111.11 51.51 106.57 44.67 105.86 50.9 104.42 50.75 105.39 42.35 106.83 42.5 111.35 49.34 112.07 43.11 113.5 43.27 112.53 51.67 111.11 51.51" class="cls-1"/>
  <path id="svg_13" fill="#ffffff" d="m121.32,54.72a8.18,8.18 0 0 1 -4.22,-3.16l1.1,-0.93a7,7 0 0 0 3.42,2.67c1.51,0.59 2.66,0.78 3.07,-0.28a1.24,1.24 0 0 0 0.09,-0.64c-0.1,-0.5 -0.81,-0.89 -2,-1.34c-2.36,-0.92 -2.63,-1.14 -3,-1.53a2.19,2.19 0 0 1 -0.37,-2.3c0.74,-1.91 2.9,-1.75 4.5,-1.13a8.6,8.6 0 0 1 3.6,2.58l-1.09,1a6.3,6.3 0 0 0 -3,-2.22c-1.28,-0.5 -2.22,-0.51 -2.52,0.27a1,1 0 0 0 -0.06,0.58c0.09,0.41 0.56,0.73 2.1,1.32c2.15,0.83 4,1.77 3.23,3.85c-0.87,2.24 -3,2 -4.83,1.28" class="cls-1"/>
  <path id="svg_14" fill="#ffffff" d="m138.44,65.49l-3.37,-3.18l5.81,-6.15l3.36,3.19a4.23,4.23 0 1 1 -5.8,6.14m4.82,-5.1l-2.32,-2.2l-3.84,4.06l2.32,2.2a2.66,2.66 0 0 0 4,-0.07a2.58,2.58 0 0 0 -0.19,-4" class="cls-1"/>
  <path id="svg_15" fill="#ffffff" d="m149.33,77.82a4.3,4.3 0 0 1 -3.18,-2.25a4.66,4.66 0 0 1 -0.77,-3.32a3.52,3.52 0 0 1 2,-2.24l4.07,-2.5l0.75,1.24l-4.06,2.5c-1,0.6 -1.16,0.84 -1.28,1.22a3.4,3.4 0 0 0 0.61,2.42a2.8,2.8 0 0 0 1.95,1.48c0.34,0 0.61,-0.05 1.51,-0.6l4.07,-2.49l0.75,1.22l-4.1,2.5a3.59,3.59 0 0 1 -2.32,0.82" class="cls-1"/>
  <path id="svg_16" fill="#ffffff" d="m107.41,124.17a7.47,7.47 0 0 0 -2.66,-0.73a7.71,7.71 0 0 1 1.08,8.8a8.2,8.2 0 0 1 -7.94,4.38a7.71,7.71 0 0 1 -1.08,-8.81a8.38,8.38 0 0 1 1.38,-1.91l0,0l0.6,-0.56l6.69,-6.28l9.24,-8.67l11.1,4.28l0,0a7.72,7.72 0 0 0 6.18,-0.07a8.15,8.15 0 0 0 4.88,-7.75l0,0a15.49,15.49 0 0 0 -1.22,-5.26a15.29,15.29 0 0 0 -2.39,-4l0,-0.06c-0.13,-0.14 -0.25,-0.3 -0.37,-0.43l0,0a7.72,7.72 0 0 0 -8.9,-1.76a8.46,8.46 0 0 0 -2.3,1.54l-9.81,9.21l-0.53,0.5l-16.24,-6.27l6,-5.67l9.88,-9.22a8.06,8.06 0 0 0 1.67,-2.2a7.69,7.69 0 0 0 -1.18,-8.93l0,0c-0.13,-0.13 -0.28,-0.27 -0.41,-0.39l0,0a16.19,16.19 0 0 0 -9,-4.2l0,0a8.17,8.17 0 0 0 -8.05,4.38a7.62,7.62 0 0 0 3.27,10.45a7.75,7.75 0 0 0 2.66,0.74a7.7,7.7 0 0 1 -1.07,-8.81a8.13,8.13 0 0 1 7.93,-4.38a7.69,7.69 0 0 1 1.08,8.8a8.16,8.16 0 0 1 -1.38,1.91l0,0l-0.6,0.56l-6.69,6.28l-9.24,8.67l-11.22,-4.31l0,0a7.78,7.78 0 0 0 -6.18,0.06a8.18,8.18 0 0 0 -4.89,7.76l0,0a16,16 0 0 0 1.22,5.26a15.37,15.37 0 0 0 2.82,4.51l0,0a7.7,7.7 0 0 0 8.84,1.75a8.3,8.3 0 0 0 2.3,-1.53l9.81,-9.21l0.53,-0.49l16.24,6.27l-6,5.66l-9.81,9.22a8.32,8.32 0 0 0 -1.65,2.17a7.7,7.7 0 0 0 1.19,8.93l0,0a15.4,15.4 0 0 0 4.31,3.09a15.57,15.57 0 0 0 5.17,1.54l0,0a8.18,8.18 0 0 0 8.06,-4.39a7.6,7.6 0 0 0 -3.26,-10.44m-19.67,-23.92l-6.69,6.27l-0.6,0.56l0,0a8.14,8.14 0 0 1 -2,1.26a7.71,7.71 0 0 1 -8.72,-1.63c-0.4,-5.59 6.76,-11.2 13.08,-8.61l5.11,2l-0.18,0.15zm29,8.2l6.69,-6.28l0.59,-0.56l0,0a8.55,8.55 0 0 1 2,-1.26a7.71,7.71 0 0 1 8.72,1.63c0.41,5.59 -6.76,11.2 -13.08,8.62l-5.1,-2l0.18,-0.15z" class="cls-1"/>
  <path id="svg_17" fill="#ffffff" d="m58.93,26.8a2.33,2.33 0 1 0 -2.33,-2.33a2.33,2.33 0 0 0 2.33,2.33m0,-3.73a1.4,1.4 0 1 1 -1.4,1.4a1.4,1.4 0 0 1 1.4,-1.4" class="cls-1"/>
  <path id="svg_18" fill="#ffffff" d="m85.74,20.75l0.14,0l0.13,0a2.27,2.27 0 0 0 1.76,-1.62c0.28,-1.06 -0.29,-2.41 -1.56,-3.69a0.48,0.48 0 0 0 -0.66,0c-1.27,1.28 -1.84,2.63 -1.57,3.69a2.29,2.29 0 0 0 1.77,1.62m0.14,-4.3a3,3 0 0 1 1,2.45a1,1 0 0 1 -2,0a3,3 0 0 1 1,-2.45" class="cls-1"/>
  <path id="svg_19" fill="#ffffff" d="m146.08,26.8a2.33,2.33 0 1 0 -2.33,-2.33a2.34,2.34 0 0 0 2.33,2.33m0,-3.73a1.4,1.4 0 1 1 -1.4,1.4a1.4,1.4 0 0 1 1.4,-1.4" class="cls-1"/>
  <path id="svg_20" fill="#ffffff" d="m119,20.75l0.12,0l0.14,0a2.29,2.29 0 0 0 1.74,-1.62c0.27,-1.06 -0.3,-2.41 -1.57,-3.69a0.47,0.47 0 0 0 -0.66,0c-1.27,1.28 -1.84,2.63 -1.57,3.69a2.29,2.29 0 0 0 1.8,1.62m0.12,-4.3a3,3 0 0 1 1,2.45a1,1 0 0 1 -2,0a3,3 0 0 1 1,-2.45" class="cls-1"/>
  <path id="svg_21" fill="#ffffff" d="m24.46,143.76a2.33,2.33 0 1 0 2.33,2.32a2.33,2.33 0 0 0 -2.33,-2.32m0,3.73a1.4,1.4 0 1 1 1.4,-1.41a1.41,1.41 0 0 1 -1.4,1.41" class="cls-1"/>
  <path id="svg_22" fill="#ffffff" d="m19.13,121a2.31,2.31 0 0 0 1.61,-1.77a0.31,0.31 0 0 0 0,-0.12a0.35,0.35 0 0 0 0,-0.13a2.29,2.29 0 0 0 -1.61,-1.77c-1.06,-0.27 -2.41,0.3 -3.69,1.57a0.48,0.48 0 0 0 0,0.66c1.28,1.27 2.63,1.84 3.69,1.57m-2.68,-1.89a3,3 0 0 1 2.45,-1a1,1 0 0 1 0,2a3,3 0 0 1 -2.45,-1" class="cls-1"/>
  <path id="svg_23" fill="#ffffff" d="m24.46,61.25a2.32,2.32 0 1 0 -2.32,-2.33a2.33,2.33 0 0 0 2.32,2.33m0,-3.72a1.4,1.4 0 1 1 -1.39,1.4a1.41,1.41 0 0 1 1.39,-1.4" class="cls-1"/>
  <path id="svg_24" fill="#ffffff" d="m19.13,84c-1.07,-0.28 -2.41,0.29 -3.7,1.56a0.5,0.5 0 0 0 0,0.66c1.28,1.27 2.63,1.84 3.7,1.56a2.28,2.28 0 0 0 1.61,-1.78a0.39,0.39 0 0 0 0,-0.13a0.36,0.36 0 0 0 0,-0.13a2.27,2.27 0 0 0 -1.61,-1.74m-0.23,2.89a3,3 0 0 1 -2.45,-1a3,3 0 0 1 2.45,-1a1,1 0 0 1 0,2" class="cls-1"/>
  <path id="svg_25" fill="#ffffff" d="m146.08,178.22a2.33,2.33 0 1 0 2.33,2.33a2.33,2.33 0 0 0 -2.33,-2.33m0,3.72a1.39,1.39 0 1 1 1.4,-1.39a1.4,1.4 0 0 1 -1.4,1.39" class="cls-1"/>
  <path id="svg_26" fill="#ffffff" d="m119.27,184.26l-0.14,0l-0.12,0a2.3,2.3 0 0 0 -1.76,1.62c-0.27,1.06 0.29,2.41 1.57,3.7a0.49,0.49 0 0 0 0.66,0c1.27,-1.28 1.84,-2.63 1.57,-3.7a2.31,2.31 0 0 0 -1.77,-1.62m-0.14,4.3a3,3 0 0 1 -1,-2.45a1,1 0 0 1 2,0a3,3 0 0 1 -1,2.45" class="cls-1"/>
  <path id="svg_27" fill="#ffffff" d="m192.45,77.82a67.68,67.68 0 0 0 -19.87,-45.34l0,0s0,0 0,0l0,0l0,0a67.69,67.69 0 0 0 -45.35,-19.87a48.47,48.47 0 0 0 -49.37,0a67.68,67.68 0 0 0 -45.39,19.82l0,0l0,0l0,0l0,0a67.7,67.7 0 0 0 -19.92,45.39a48.49,48.49 0 0 0 0,49.37a67.69,67.69 0 0 0 19.87,45.34l0,0l0,0l0,0l0,0a67.63,67.63 0 0 0 45.35,19.87a48.46,48.46 0 0 0 49.37,0a67.65,67.65 0 0 0 45.35,-19.87l0,0l0,0l0,0l0,0a67.68,67.68 0 0 0 19.87,-45.34a48.44,48.44 0 0 0 0,-49.37m-1.14,48.87a0.65,0.65 0 0 0 -0.09,0.3a66.88,66.88 0 0 1 -64.13,64.24a0.53,0.53 0 0 0 -0.29,0.08a47.2,47.2 0 0 1 -48.37,0a0.54,0.54 0 0 0 -0.3,-0.08a66.89,66.89 0 0 1 -64.26,-64.23a0.63,0.63 0 0 0 -0.08,-0.3a47.19,47.19 0 0 1 0,-48.37a0.62,0.62 0 0 0 0.08,-0.29a66.89,66.89 0 0 1 64.22,-64.25a0.59,0.59 0 0 0 0.3,-0.09a47.23,47.23 0 0 1 48.37,0a0.58,0.58 0 0 0 0.29,0.09a66.87,66.87 0 0 1 64.27,64.21a0.64,0.64 0 0 0 0.09,0.29a47.24,47.24 0 0 1 0,48.37" class="cls-1"/>
  <path id="svg_28" fill="#ffffff" d="m197.85,76.34a72.07,72.07 0 0 0 -21.07,-48.06l0,0l0,0l0,0l0,0a72.12,72.12 0 0 0 -48.11,-21.12a51.41,51.41 0 0 0 -52.33,0a72.11,72.11 0 0 0 -48.06,21.07l0,0l0,0l0,0l0,0a72.07,72.07 0 0 0 -21.12,48.11a51.41,51.41 0 0 0 0,52.33a72.06,72.06 0 0 0 21.07,48.06l0,0l0,0s0,0 0,0l0,0a72.09,72.09 0 0 0 48.06,21.07a51.46,51.46 0 0 0 52.33,0a72.09,72.09 0 0 0 48.06,-21.07l0,0l0,0l0,0l0,0a72.06,72.06 0 0 0 21.07,-48.06a51.43,51.43 0 0 0 0,-52.33m-1.33,51.66a0.78,0.78 0 0 0 -0.11,0.37a70.7,70.7 0 0 1 -67.9,67.9a0.78,0.78 0 0 0 -0.37,0.11a49.89,49.89 0 0 1 -51.08,0a0.78,0.78 0 0 0 -0.37,-0.11a70.69,70.69 0 0 1 -67.9,-67.9a0.86,0.86 0 0 0 -0.1,-0.37a49.85,49.85 0 0 1 0,-51a0.76,0.76 0 0 0 0.1,-0.36a70.7,70.7 0 0 1 67.9,-67.9a0.76,0.76 0 0 0 0.41,-0.15a49.88,49.88 0 0 1 51.08,0a0.77,0.77 0 0 0 0.37,0.11a70.71,70.71 0 0 1 67.9,67.9a0.69,0.69 0 0 0 0.11,0.36a49.88,49.88 0 0 1 0,51.09" class="cls-1"/>
  <path id="svg_29" fill="#ffffff" d="m58.93,178.22a2.33,2.33 0 1 0 2.33,2.33a2.33,2.33 0 0 0 -2.33,-2.33m0,3.72a1.39,1.39 0 1 1 1.4,-1.39a1.39,1.39 0 0 1 -1.4,1.39" class="cls-1"/>
  <path id="svg_30" fill="#ffffff" d="m86,184.26l-0.13,0l-0.14,0a2.3,2.3 0 0 0 -1.73,1.62c-0.27,1.06 0.3,2.41 1.57,3.7a0.5,0.5 0 0 0 0.66,0c1.27,-1.28 1.84,-2.63 1.56,-3.7a2.29,2.29 0 0 0 -1.79,-1.62m-0.13,4.3a3,3 0 0 1 -1,-2.45a1,1 0 0 1 2,0a3,3 0 0 1 -1,2.45" class="cls-1"/>
  <path id="svg_31" fill="#ffffff" d="m195.46,97.34a0.48,0.48 0 0 0 0,-0.07a46.69,46.69 0 0 0 -6.24,-18.55a65.62,65.62 0 0 0 -62.92,-62.93a46.62,46.62 0 0 0 -18.56,-6.23l-0.06,0a46.5,46.5 0 0 0 -10.35,0l-0.06,0a46.59,46.59 0 0 0 -18.56,6.23a65.63,65.63 0 0 0 -62.93,62.92a46.73,46.73 0 0 0 -6.22,18.56a0.26,0.26 0 0 0 0,0.07a46.65,46.65 0 0 0 0,10.34a0.25,0.25 0 0 0 0,0.07a46.8,46.8 0 0 0 6.22,18.56a65.63,65.63 0 0 0 62.93,62.92a46.73,46.73 0 0 0 18.56,6.23l0.06,0a46.56,46.56 0 0 0 10.35,0l0.06,0a46.76,46.76 0 0 0 18.56,-6.23a65.62,65.62 0 0 0 62.92,-62.92a46.76,46.76 0 0 0 6.24,-18.56a0.55,0.55 0 0 0 0,-0.07a48.38,48.38 0 0 0 0,-10.34m-7.2,-19.11c-2.85,-2.32 -5.86,-3.32 -8.3,-2.69a5.23,5.23 0 0 0 -3.29,2.61a55.36,55.36 0 0 0 -2.17,-10.46c3.52,5.08 7.06,6.32 9.36,5.61a5.11,5.11 0 0 0 3.31,-4.19a64.85,64.85 0 0 1 1.09,9.13m-65.49,97.84a0.47,0.47 0 0 0 -0.22,0.06a39.17,39.17 0 0 1 -40.11,0a0.45,0.45 0 0 0 -0.22,-0.06a55.5,55.5 0 0 1 -53.28,-53.28a0.51,0.51 0 0 0 -0.07,-0.22a39.23,39.23 0 0 1 0,-40.11a0.46,0.46 0 0 0 0.07,-0.21a55.48,55.48 0 0 1 53.29,-53.26a0.43,0.43 0 0 0 0.22,-0.07a39.18,39.18 0 0 1 40.11,0a0.45,0.45 0 0 0 0.22,0.07a55.49,55.49 0 0 1 53.28,53.28a0.47,0.47 0 0 0 0.07,0.21a39.17,39.17 0 0 1 0,40.11a0.52,0.52 0 0 0 -0.07,0.22a55.51,55.51 0 0 1 -53.28,53.28m26.43,-6.19a3.2,3.2 0 0 1 0.51,2.44a6.78,6.78 0 0 1 -1.87,2.64a6.62,6.62 0 0 1 -0.3,-3.23a3.21,3.21 0 0 1 1.66,-1.86m-91.74,1.86a6.63,6.63 0 0 1 -0.31,3.23a6.73,6.73 0 0 1 -1.87,-2.64a3.17,3.17 0 0 1 0.51,-2.44a3.25,3.25 0 0 1 1.66,1.86m-1.65,-136.64a3.17,3.17 0 0 1 -0.51,-2.44a6.81,6.81 0 0 1 1.86,-2.69a6.64,6.64 0 0 1 0.31,3.23a3.24,3.24 0 0 1 -1.66,1.86m91.74,-1.86a6.62,6.62 0 0 1 0.3,-3.23a6.86,6.86 0 0 1 1.87,2.65a3.2,3.2 0 0 1 -0.51,2.44a3.2,3.2 0 0 1 -1.66,-1.86m38.74,31.86c0.59,3.74 -0.46,6.6 -2.69,7.28c-2.51,0.77 -6.46,-1.47 -10,-8c1.8,2 4.22,4.25 6,4.22a2.31,2.31 0 0 0 2.26,-2c0.2,-1.17 -0.42,-2.86 -2.83,-3.75a0.46,0.46 0 1 0 -0.32,0.87c1.88,0.69 2.38,1.9 2.23,2.72a1.38,1.38 0 0 1 -1.36,1.19c-1.76,0 -5.21,-3.43 -7.72,-6.88c-0.47,-1 -1,-2 -1.47,-3a3.33,3.33 0 0 0 1.09,0.52c1.78,0.48 4.34,-0.5 4.45,-0.55a0.46,0.46 0 0 0 0.2,-0.72c-0.08,-0.09 -1.8,-2.22 -3.58,-2.7a4.33,4.33 0 0 0 -3.56,0.9s0,0 0,0q-1.19,-2 -2.54,-3.84a8,8 0 0 0 4.49,1.87c3.76,0.25 8.48,-2.51 9.46,-3.1a64.52,64.52 0 0 1 5.9,14.9m-16.4,-9.33a3.2,3.2 0 0 1 2.44,-0.51a6.68,6.68 0 0 1 2.66,1.98a6.68,6.68 0 0 1 -3.23,0.3a3.21,3.21 0 0 1 -1.85,-1.66m1.1,-3.39c-3.11,-0.2 -5.21,-2.79 -5.83,-3.66c0.73,-0.78 3.15,-3.07 6.26,-2.87s6.74,2.79 8.08,3.81c-1.46,0.83 -5.43,2.93 -8.5,2.72m-0.53,-13.41a7.06,7.06 0 0 1 -1.64,3a7,7 0 0 1 -0.76,-3.37a3.38,3.38 0 0 1 1.52,-2.18a3.33,3.33 0 0 1 0.88,2.55m-4.13,-2.07a7.07,7.07 0 0 1 -3.37,-0.75a7.13,7.13 0 0 1 3,-1.63a3.28,3.28 0 0 1 2.52,0.87a3.4,3.4 0 0 1 -2.18,1.51m1,-3.19a3.49,3.49 0 0 0 -1.49,-0.13c-1.91,0.26 -4,2.26 -4.07,2.34a0.49,0.49 0 0 0 -0.14,0.4a0.5,0.5 0 0 0 0.24,0.34a10.18,10.18 0 0 0 4,1.19a3.83,3.83 0 0 0 0.53,0a3.46,3.46 0 0 0 1,-0.29a3.47,3.47 0 0 0 -0.29,1a4,4 0 0 0 0,0.52a10.16,10.16 0 0 0 1.19,4a0.45,0.45 0 0 0 0.34,0.24a0.47,0.47 0 0 0 0.4,-0.14c0.08,-0.09 2.08,-2.16 2.34,-4.07a3.48,3.48 0 0 0 -0.13,-1.5a64.7,64.7 0 0 1 8.05,10.83c-1.74,-1.25 -5,-3.28 -7.87,-3.47c-4.21,-0.27 -7.14,3.32 -7.27,3.47l0,0.09c-1.15,-1.39 -2.36,-2.73 -3.65,-4s-2.63,-2.51 -4,-3.65a0.29,0.29 0 0 0 0.09,-0.06c0.15,-0.12 3.74,-3.06 3.47,-7.26c-0.19,-2.9 -2.22,-6.13 -3.47,-7.87a64.58,64.58 0 0 1 10.82,8m-8.28,-0.11c0.2,3.11 -2.09,5.53 -2.88,6.26c-0.86,-0.62 -3.45,-2.72 -3.66,-5.82s1.9,-7 2.73,-8.51c1,1.34 3.61,5 3.81,8.08m-19.28,-14.9a64.67,64.67 0 0 1 14.89,5.91c-0.59,1 -3.35,5.7 -3.1,9.46a7.94,7.94 0 0 0 1.86,4.49q-1.88,-1.35 -3.84,-2.54l0,0a4.32,4.32 0 0 0 0.89,-3.56c-0.48,-1.78 -2.61,-3.5 -2.7,-3.58a0.45,0.45 0 0 0 -0.41,-0.09a0.46,0.46 0 0 0 -0.31,0.28a8.71,8.71 0 0 0 -0.55,4.44a3.38,3.38 0 0 0 0.53,1.1q-1.46,-0.78 -3,-1.47c-3.45,-2.51 -6.92,-6 -6.88,-7.72a1.39,1.39 0 0 1 1.2,-1.37c0.82,-0.14 2,0.36 2.72,2.24a0.46,0.46 0 0 0 0.6,0.27a0.45,0.45 0 0 0 0.26,-0.59c-0.89,-2.42 -2.57,-3 -3.75,-2.84a2.32,2.32 0 0 0 -2,2.27c0,1.8 2.21,4.22 4.22,6c-6.55,-3.55 -8.8,-7.49 -8,-10c0.69,-2.22 3.53,-3.28 7.28,-2.7m-4,-0.89a5.1,5.1 0 0 0 -4.2,3.31c-0.71,2.3 0.53,5.85 5.61,9.36a56.33,56.33 0 0 0 -10.45,-2.17a5.22,5.22 0 0 0 2.6,-3.28c0.63,-2.43 -0.37,-5.45 -2.69,-8.3a65.91,65.91 0 0 1 9.13,1.09m-55.7,-1.77a45.24,45.24 0 0 1 13.69,-5l-4.38,9.78a0.48,0.48 0 0 0 0.24,0.61a0.54,0.54 0 0 0 0.19,0a0.47,0.47 0 0 0 0.42,-0.27l4.64,-10.37c0.58,-0.09 1.15,-0.18 1.72,-0.25l-3,6.63a0.47,0.47 0 0 0 0.24,0.61a0.42,0.42 0 0 0 0.19,0a0.47,0.47 0 0 0 0.43,-0.27l3.19,-7.14c0.56,-0.06 1.12,-0.11 1.68,-0.15l-1.62,3.75a0.46,0.46 0 0 0 0.23,0.61a0.58,0.58 0 0 0 0.19,0a0.46,0.46 0 0 0 0.42,-0.27l1.83,-4.1c0.71,0 1.41,0 2.12,0s1.42,0 2.12,0l1.83,4.1a0.46,0.46 0 0 0 0.43,0.27a0.51,0.51 0 0 0 0.18,0a0.46,0.46 0 0 0 0.24,-0.61l-1.63,-3.66c0.56,0 1.12,0.09 1.68,0.15l3.19,7.14a0.49,0.49 0 0 0 0.43,0.27a0.41,0.41 0 0 0 0.18,0a0.46,0.46 0 0 0 0.23,-0.61l-3,-6.63c0.58,0.07 1.15,0.16 1.72,0.25l4.64,10.37a0.46,0.46 0 0 0 0.42,0.27a0.54,0.54 0 0 0 0.2,0a0.47,0.47 0 0 0 0.23,-0.61l-4.34,-9.94a45.16,45.16 0 0 1 13.68,5c2.94,3 4.3,6.24 3.65,8.74a4.58,4.58 0 0 1 -3.35,3.2a6.16,6.16 0 0 1 -2.36,-1.19a5,5 0 0 0 0.79,0.29l0.13,0l0.13,0a3.57,3.57 0 0 0 2.76,-2.5c0.44,-1.69 -0.5,-3.85 -2.56,-5.93a0.44,0.44 0 0 0 -0.33,-0.14a0.43,0.43 0 0 0 -0.32,0.14c-1.69,1.71 -2.62,3.48 -2.67,5a4.42,4.42 0 0 0 2.1,4.33a40.08,40.08 0 0 0 -40.77,0a4.43,4.43 0 0 0 2.1,-4.33a7.91,7.91 0 0 0 -2.67,-5a0.43,0.43 0 0 0 -0.33,-0.14a0.44,0.44 0 0 0 -0.33,0.14c-2.06,2.08 -3,4.24 -2.56,5.93a3.59,3.59 0 0 0 2.76,2.5l0.13,0l0.13,0a5.29,5.29 0 0 0 0.79,-0.29a6.2,6.2 0 0 1 -2.36,1.25a4.58,4.58 0 0 1 -3.36,-3.2c-0.65,-2.5 0.71,-5.76 3.64,-8.74m41.63,7.59a6.71,6.71 0 0 1 2.07,-4c1.6,1.73 2.33,3.42 2,4.7a2,2 0 0 1 -4,0a2.46,2.46 0 0 1 -0.08,-0.62a0.1,0.1 0 0 1 0,-0.05a0.12,0.12 0 0 0 0,-0.06m-38.42,0.06l0,0.05a2.44,2.44 0 0 1 -0.07,0.62a2.71,2.71 0 0 1 -2,1.8a2.69,2.69 0 0 1 -2,-1.8c-0.33,-1.28 0.39,-3 2,-4.7a6.59,6.59 0 0 1 2.07,4l0,0.06m-5.07,-7c-2.32,2.85 -3.31,5.87 -2.69,8.3a5.2,5.2 0 0 0 2.6,3.28a56.29,56.29 0 0 0 -10.42,2.21c5.08,-3.5 6.31,-7.06 5.61,-9.36a5.12,5.12 0 0 0 -4.21,-3.31a66.06,66.06 0 0 1 9.13,-1.09m-13.09,2c3.75,-0.59 6.6,0.47 7.28,2.7c0.77,2.51 -1.47,6.45 -8,10c2,-1.8 4.26,-4.22 4.23,-6a2.32,2.32 0 0 0 -2,-2.27c-1.18,-0.2 -2.87,0.42 -3.75,2.84a0.46,0.46 0 0 0 0.86,0.32c0.7,-1.88 1.9,-2.38 2.73,-2.24a1.38,1.38 0 0 1 1.19,1.37c0,1.75 -3.43,5.2 -6.88,7.72q-1.5,0.69 -3,1.47a3.21,3.21 0 0 0 0.53,-1.1c0.48,-1.77 -0.51,-4.34 -0.55,-4.44a0.47,0.47 0 0 0 -0.32,-0.28a0.45,0.45 0 0 0 -0.41,0.09c-0.09,0.07 -2.22,1.8 -2.7,3.58a4.33,4.33 0 0 0 0.9,3.56l0,0q-2,1.19 -3.84,2.54a8,8 0 0 0 1.86,-4.49c0.25,-3.75 -2.51,-8.49 -3.1,-9.46a64.79,64.79 0 0 1 14.89,-5.91m-12.63,15.26c-0.2,3.1 -2.8,5.2 -3.66,5.82c-0.78,-0.73 -3.08,-3.14 -2.87,-6.26s2.79,-6.74 3.81,-8.08c0.83,1.52 2.92,5.52 2.72,8.52m-17,2.42a3.39,3.39 0 0 1 1.52,2.18a7,7 0 0 1 -0.79,3.4a7,7 0 0 1 -1.64,-3a3.31,3.31 0 0 1 0.87,-2.51m1.07,-1.07a3.29,3.29 0 0 1 2.55,-0.91a7,7 0 0 1 3,1.63a7,7 0 0 1 -3.36,0.75a3.39,3.39 0 0 1 -2.19,-1.51m-2.73,2.21a3.55,3.55 0 0 0 -0.13,1.5c0.26,1.91 2.26,4 2.34,4.07a0.48,0.48 0 0 0 0.4,0.14a0.45,0.45 0 0 0 0.34,-0.24a10.16,10.16 0 0 0 1.19,-4a3.43,3.43 0 0 0 0,-0.52a3.58,3.58 0 0 0 -0.28,-1a3.39,3.39 0 0 0 1,0.29a3.78,3.78 0 0 0 0.52,0a10.21,10.21 0 0 0 4,-1.19a0.5,0.5 0 0 0 0.23,-0.34a0.48,0.48 0 0 0 -0.13,-0.4c-0.09,-0.08 -2.16,-2.08 -4.07,-2.34a3.51,3.51 0 0 0 -1.5,0.13a65,65 0 0 1 10.83,-8c-1.25,1.74 -3.28,5 -3.47,7.87c-0.27,4.21 3.31,7.14 3.47,7.26a0.24,0.24 0 0 0 0.09,0.06c-1.39,1.14 -2.73,2.36 -4,3.65s-2.5,2.62 -3.64,4a0.48,0.48 0 0 0 -0.05,-0.09c-0.13,-0.15 -3.07,-3.74 -7.27,-3.47c-2.9,0.19 -6.14,2.22 -7.87,3.47a65,65 0 0 1 8.05,-10.83m-0.12,8.29c3.1,-0.2 5.52,2.09 6.25,2.87c-0.61,0.87 -2.71,3.46 -5.82,3.66s-7,-1.89 -8.51,-2.72c1.33,-1 5,-3.61 8.08,-3.81m-14.92,19.23a64.31,64.31 0 0 1 5.9,-14.9c1,0.6 5.7,3.35 9.46,3.1a7.93,7.93 0 0 0 4.48,-1.87q-1.34,1.89 -2.57,3.86l0,0a4.33,4.33 0 0 0 -3.56,-0.9a8.77,8.77 0 0 0 -3.58,2.7a0.46,0.46 0 0 0 0.19,0.72a8.76,8.76 0 0 0 4.45,0.55a3.36,3.36 0 0 0 1.09,-0.52c-0.52,1 -1,2 -1.47,3c-2.52,3.44 -6,6.91 -7.72,6.88a1.39,1.39 0 0 1 -1.4,-1.26c-0.13,-0.82 0.36,-2 2.25,-2.72a0.47,0.47 0 0 0 0.27,-0.6a0.46,0.46 0 0 0 -0.59,-0.27c-2.41,0.9 -3,2.58 -2.84,3.75a2.31,2.31 0 0 0 2.27,2c1.8,0 4.22,-2.21 6,-4.22c-3.55,6.56 -7.5,8.8 -10,8c-2.22,-0.68 -3.28,-3.54 -2.68,-7.28m16.4,-9.33a3.16,3.16 0 0 1 -1.85,1.66a6.68,6.68 0 0 1 -3.23,-0.3a6.66,6.66 0 0 1 2.64,-1.87a3.19,3.19 0 0 1 2.44,0.51m-17.25,13.28a5.1,5.1 0 0 0 3.32,4.19c2.29,0.71 5.84,-0.52 9.36,-5.61a55.71,55.71 0 0 0 -2.18,10.46a5.19,5.19 0 0 0 -3.33,-2.61c-2.44,-0.63 -5.45,0.37 -8.31,2.69a66.93,66.93 0 0 1 1.09,-9.13m-6.78,42.16l9.78,4.38a0.47,0.47 0 0 0 0.62,-0.23a0.56,0.56 0 0 0 0,-0.19a0.46,0.46 0 0 0 -0.27,-0.43l-10.36,-4.64c-0.1,-0.57 -0.19,-1.14 -0.26,-1.71l6.63,3a0.47,0.47 0 0 0 0.61,-0.24a0.39,0.39 0 0 0 0,-0.19a0.46,0.46 0 0 0 -0.28,-0.42l-7.14,-3.19c-0.06,-0.56 -0.1,-1.12 -0.15,-1.68l3.82,1.59a0.47,0.47 0 0 0 0.62,-0.23a0.44,0.44 0 0 0 0,-0.19a0.46,0.46 0 0 0 -0.27,-0.43l-4.09,-1.83c0,-0.71 -0.06,-1.41 -0.06,-2.12s0,-1.41 0.06,-2.12l4.09,-1.83a0.47,0.47 0 0 0 0.27,-0.42a0.45,0.45 0 0 0 0,-0.19a0.47,0.47 0 0 0 -0.62,-0.23l-3.7,1.63c0,-0.56 0.09,-1.12 0.15,-1.67l7.14,-3.19a0.47,0.47 0 0 0 0.28,-0.43a0.37,0.37 0 0 0 0,-0.19a0.46,0.46 0 0 0 -0.61,-0.24l-6.63,3c0.07,-0.58 0.16,-1.15 0.26,-1.72l10.36,-4.64a0.46,0.46 0 0 0 0.27,-0.42a0.53,0.53 0 0 0 0,-0.19a0.47,0.47 0 0 0 -0.62,-0.23l-9.9,4.34a45.21,45.21 0 0 1 5,-13.68c3,-2.93 6.24,-4.3 8.75,-3.64a4.57,4.57 0 0 1 3.25,3.35a6.14,6.14 0 0 1 -1.19,2.36a5.35,5.35 0 0 0 0.3,-0.8a0.74,0.74 0 0 0 0,-0.13a0.78,0.78 0 0 0 0,-0.13a3.56,3.56 0 0 0 -2.5,-2.76c-1.68,-0.44 -3.85,0.49 -5.93,2.56a0.47,0.47 0 0 0 -0.14,0.33a0.45,0.45 0 0 0 0.14,0.33c1.71,1.7 3.48,2.63 5,2.66a4.42,4.42 0 0 0 4.32,-2.09a40.13,40.13 0 0 0 0,40.77a4.41,4.41 0 0 0 -4.32,-2.1c-1.5,0 -3.27,1 -5,2.66a0.45,0.45 0 0 0 -0.14,0.33a0.48,0.48 0 0 0 0.14,0.34c2.08,2.06 4.25,3 5.93,2.55a3.55,3.55 0 0 0 2.5,-2.76a0.77,0.77 0 0 0 0,-0.13a0.74,0.74 0 0 0 0,-0.13a5.52,5.52 0 0 0 -0.3,-0.8a6.29,6.29 0 0 1 1.19,2.37a4.57,4.57 0 0 1 -3.2,3.35c-2.51,0.65 -5.78,-0.71 -8.75,-3.64a45.24,45.24 0 0 1 -5,-13.69m15.16,-30a2.7,2.7 0 0 1 -1.8,2a2.67,2.67 0 0 1 -0.63,0.08l-0.1,0a6.6,6.6 0 0 1 -4,-2.06c1.72,-1.6 3.43,-2.32 4.7,-2a2.7,2.7 0 0 1 1.8,2m0,42.56a2.71,2.71 0 0 1 -1.8,2c-1.27,0.33 -3,-0.4 -4.7,-2a6.64,6.64 0 0 1 4,-2.06l0.1,0a2.39,2.39 0 0 1 0.63,0.08a2.68,2.68 0 0 1 1.8,2m-9.45,3c2.85,2.32 5.87,3.32 8.31,2.68a5.17,5.17 0 0 0 3.28,-2.6a55.82,55.82 0 0 0 2.18,10.46c-3.52,-5.08 -7.07,-6.32 -9.36,-5.61a5.11,5.11 0 0 0 -3.32,4.2a66.88,66.88 0 0 1 -1.09,-9.13m2,13.09c-0.6,-3.75 0.46,-6.6 2.68,-7.28c2.51,-0.77 6.46,1.47 10,8c-1.8,-2 -4.22,-4.26 -6,-4.23a2.32,2.32 0 0 0 -2.27,2c-0.2,1.18 0.42,2.86 2.84,3.76a0.46,0.46 0 0 0 0.32,-0.87c-1.88,-0.7 -2.38,-1.9 -2.25,-2.73a1.4,1.4 0 0 1 1.37,-1.19c1.76,0 5.21,3.43 7.72,6.88c0.46,1 0.95,2 1.47,3a3.31,3.31 0 0 0 -1.09,-0.52a8.68,8.68 0 0 0 -4.45,0.55a0.46,0.46 0 0 0 -0.28,0.31a0.47,0.47 0 0 0 0.09,0.41c0.07,0.09 1.8,2.22 3.58,2.7a4.28,4.28 0 0 0 3.56,-0.9l0,0q1.19,2 2.53,3.85a7.88,7.88 0 0 0 -4.48,-1.87c-3.76,-0.25 -8.49,2.5 -9.46,3.1a64.2,64.2 0 0 1 -5.9,-14.89m16.4,9.33a3.17,3.17 0 0 1 -2.44,0.5a6.59,6.59 0 0 1 -2.64,-1.87a6.74,6.74 0 0 1 3.23,-0.3a3.16,3.16 0 0 1 1.85,1.66m-1.14,3.26c3.11,0.2 5.21,2.79 5.82,3.66c-0.73,0.78 -3.15,3.08 -6.25,2.87s-6.75,-2.79 -8.08,-3.8c1.46,-0.84 5.43,-2.93 8.51,-2.73m0.51,13.41a7,7 0 0 1 1.64,-3a7,7 0 0 1 0.75,3.37a3.38,3.38 0 0 1 -1.52,2.18a3.32,3.32 0 0 1 -0.87,-2.51m4.13,2.07a6.94,6.94 0 0 1 3.36,0.75a7,7 0 0 1 -3,1.63a3.31,3.31 0 0 1 -2.51,-0.88a3.39,3.39 0 0 1 2.19,-1.51m-1.05,3.19a3.52,3.52 0 0 0 1.5,0.12c1.91,-0.26 4,-2.25 4.07,-2.33a0.49,0.49 0 0 0 0.13,-0.4a0.48,0.48 0 0 0 -0.23,-0.35a10.24,10.24 0 0 0 -4,-1.19a4.33,4.33 0 0 0 -0.52,0a3.63,3.63 0 0 0 -1,0.29a3.45,3.45 0 0 0 0.28,-1a3.52,3.52 0 0 0 0,-0.52a10.19,10.19 0 0 0 -1.19,-4a0.44,0.44 0 0 0 -0.34,-0.24a0.46,0.46 0 0 0 -0.4,0.14c-0.08,0.09 -2.08,2.15 -2.34,4.07a3.52,3.52 0 0 0 0.13,1.5a64.78,64.78 0 0 1 -8.05,-10.83c1.74,1.25 5,3.28 7.87,3.48c4.21,0.27 7.14,-3.32 7.27,-3.47l0.05,-0.09q1.72,2.08 3.64,4c1.29,1.28 2.63,2.5 4,3.65l-0.09,0.05c-0.16,0.13 -3.74,3.06 -3.47,7.27c0.19,2.9 2.22,6.13 3.47,7.87a65.28,65.28 0 0 1 -10.83,-8m8.29,0.11c-0.2,-3.11 2.09,-5.53 2.87,-6.26c0.86,0.61 3.46,2.72 3.66,5.83s-1.89,7 -2.73,8.5c-1,-1.34 -3.6,-5 -3.81,-8.08m19.25,14.87a64.19,64.19 0 0 1 -14.89,-5.91c0.59,-1 3.35,-5.69 3.1,-9.46a8,8 0 0 0 -1.86,-4.49q1.87,1.35 3.84,2.54l0,0a4.32,4.32 0 0 0 -0.9,3.56c0.48,1.78 2.61,3.51 2.7,3.58a0.46,0.46 0 0 0 0.41,0.09a0.47,0.47 0 0 0 0.32,-0.28c0,-0.11 1,-2.67 0.55,-4.44a3.15,3.15 0 0 0 -0.53,-1.1q1.46,0.78 3,1.47c3.45,2.51 6.92,6 6.88,7.73a1.38,1.38 0 0 1 -1.25,1.43c-0.83,0.14 -2,-0.36 -2.73,-2.24a0.46,0.46 0 1 0 -0.86,0.33c0.89,2.4 2.57,3 3.75,2.83a2.33,2.33 0 0 0 2,-2.27c0,-1.8 -2.21,-4.22 -4.23,-6c6.56,3.55 8.8,7.5 8,10c-0.68,2.22 -3.54,3.28 -7.28,2.69m4,0.89a5.1,5.1 0 0 0 4.21,-3.31c0.7,-2.3 -0.54,-5.85 -5.61,-9.36a55.67,55.67 0 0 0 10.45,2.17a5.22,5.22 0 0 0 -2.6,3.28c-0.63,2.44 0.36,5.46 2.69,8.31a64.89,64.89 0 0 1 -9.13,-1.09m55.83,1.76a45.39,45.39 0 0 1 -13.68,5l4.37,-9.79a0.46,0.46 0 0 0 -0.23,-0.6a0.41,0.41 0 0 0 -0.2,0a0.45,0.45 0 0 0 -0.42,0.28l-4.64,10.37l-1.72,0.26l3,-6.63a0.47,0.47 0 0 0 -0.23,-0.62a0.57,0.57 0 0 0 -0.18,0a0.49,0.49 0 0 0 -0.43,0.27l-3.19,7.14l-1.68,0.15l1.63,-3.66a0.46,0.46 0 0 0 -0.24,-0.62a0.43,0.43 0 0 0 -0.18,0a0.48,0.48 0 0 0 -0.43,0.28l-1.83,4.1q-1.05,0.05 -2.12,0c-0.71,0 -1.41,0 -2.12,0l-1.83,-4.1a0.47,0.47 0 0 0 -0.42,-0.28a0.49,0.49 0 0 0 -0.19,0a0.47,0.47 0 0 0 -0.23,0.62l1.63,3.66l-1.68,-0.15l-3.19,-7.14a0.47,0.47 0 0 0 -0.43,-0.27a0.6,0.6 0 0 0 -0.19,0a0.48,0.48 0 0 0 -0.24,0.62l3,6.63l-1.72,-0.26l-4.64,-10.37a0.46,0.46 0 0 0 -0.42,-0.28a0.41,0.41 0 0 0 -0.19,0a0.46,0.46 0 0 0 -0.24,0.6l4.29,9.8a45.47,45.47 0 0 1 -13.69,-5c-2.93,-3 -4.3,-6.24 -3.64,-8.74a4.59,4.59 0 0 1 3.36,-3.26a6.23,6.23 0 0 1 2.36,1.19a6,6 0 0 0 -0.79,-0.29l-0.13,0l-0.13,0a3.58,3.58 0 0 0 -2.76,2.5c-0.44,1.69 0.5,3.85 2.56,5.93a0.48,0.48 0 0 0 0.33,0.14a0.47,0.47 0 0 0 0.33,-0.14a7.92,7.92 0 0 0 2.67,-5a4.42,4.42 0 0 0 -2.1,-4.32a40.13,40.13 0 0 0 40.77,0a4.41,4.41 0 0 0 -2.1,4.32a8,8 0 0 0 2.67,5a0.47,0.47 0 0 0 0.32,0.14a0.48,0.48 0 0 0 0.33,-0.14c2.06,-2.08 3,-4.24 2.56,-5.93a3.57,3.57 0 0 0 -2.76,-2.5l-0.13,0l-0.13,0a5.62,5.62 0 0 0 -0.79,0.29a6.2,6.2 0 0 1 2.36,-1.19a4.58,4.58 0 0 1 3.35,3.21c0.65,2.5 -0.71,5.77 -3.65,8.74m-41.64,-7.6a6.61,6.61 0 0 1 -2.07,4c-1.6,-1.73 -2.32,-3.42 -2,-4.7a2.67,2.67 0 0 1 2,-1.81a2.7,2.7 0 0 1 2,1.81a2.41,2.41 0 0 1 0.07,0.62l0,0.1m38.43,0a0.09,0.09 0 0 1 0,-0.05a2.44,2.44 0 0 1 0.08,-0.62a2,2 0 0 1 4,0c0.33,1.28 -0.39,3 -2,4.7a6.73,6.73 0 0 1 -2.07,-4a0.07,0.07 0 0 0 0,0m5.06,7c2.33,-2.85 3.32,-5.87 2.69,-8.31a5.24,5.24 0 0 0 -2.6,-3.28a55.71,55.71 0 0 0 10.45,-2.17c-5.08,3.51 -6.31,7.06 -5.61,9.36a5.08,5.08 0 0 0 4.2,3.31a64.75,64.75 0 0 1 -9.13,1.09m13.09,-2c-3.74,0.59 -6.59,-0.47 -7.28,-2.69c-0.77,-2.51 1.47,-6.46 8,-10c-2,1.81 -4.25,4.22 -4.22,6a2.32,2.32 0 0 0 2,2.27c1.18,0.2 2.87,-0.43 3.75,-2.83a0.46,0.46 0 1 0 -0.87,-0.33c-0.69,1.88 -1.91,2.38 -2.72,2.24a1.39,1.39 0 0 1 -1.2,-1.36c0,-1.76 3.43,-5.21 6.88,-7.73q1.5,-0.68 3,-1.47a3.32,3.32 0 0 0 -0.53,1.1a8.72,8.72 0 0 0 0.55,4.44a0.46,0.46 0 0 0 0.31,0.28a0.46,0.46 0 0 0 0.41,-0.09c0.09,-0.07 2.22,-1.8 2.7,-3.58a4.3,4.3 0 0 0 -0.89,-3.56l0,0q2,-1.18 3.84,-2.54a8,8 0 0 0 -1.86,4.49c-0.25,3.76 2.51,8.49 3.1,9.46a64.08,64.08 0 0 1 -14.89,5.91m12.63,-15.41c0.21,-3.11 2.8,-5.22 3.66,-5.83c0.78,0.73 3.08,3.15 2.88,6.26s-2.79,6.74 -3.81,8.08c-0.83,-1.46 -2.92,-5.44 -2.73,-8.5m17,-2.43a3.38,3.38 0 0 1 -1.52,-2.18a6.93,6.93 0 0 1 0.76,-3.37a7.1,7.1 0 0 1 1.64,3a3.34,3.34 0 0 1 -0.87,2.51m-1.08,1.07a3.3,3.3 0 0 1 -2.52,0.88a7.15,7.15 0 0 1 -3,-1.63a7,7 0 0 1 3.37,-0.75a3.41,3.41 0 0 1 2.18,1.51m2.74,-2.21a3.45,3.45 0 0 0 0.13,-1.5c-0.26,-1.91 -2.25,-4 -2.34,-4.07a0.46,0.46 0 0 0 -0.4,-0.14a0.45,0.45 0 0 0 -0.34,0.24a10.18,10.18 0 0 0 -1.19,4a4.16,4.16 0 0 0 0,0.52a3.34,3.34 0 0 0 0.29,1a3.72,3.72 0 0 0 -1,-0.29a4.38,4.38 0 0 0 -0.53,0a10.22,10.22 0 0 0 -4,1.19a0.48,0.48 0 0 0 -0.24,0.35a0.5,0.5 0 0 0 0.14,0.4c0.08,0.08 2.16,2.07 4.07,2.33a3.5,3.5 0 0 0 1.49,-0.12a64.9,64.9 0 0 1 -10.82,8c1.25,-1.74 3.28,-5 3.47,-7.87c0.28,-4.21 -3.31,-7.14 -3.47,-7.27l-0.09,-0.05c1.38,-1.15 2.73,-2.37 4,-3.65s2.5,-2.62 3.65,-4l0,0.09c0.13,0.15 3.07,3.74 7.27,3.47c2.9,-0.19 6.14,-2.22 7.87,-3.48a64.44,64.44 0 0 1 -8.05,10.83m0.12,-8.29c-3.1,0.21 -5.53,-2.09 -6.26,-2.87c0.62,-0.87 2.72,-3.46 5.83,-3.66s7,1.89 8.5,2.73c-1.33,1 -5,3.6 -8.08,3.8m14.87,-19.25a64.4,64.4 0 0 1 -5.9,14.89c-1,-0.6 -5.7,-3.35 -9.46,-3.1a7.9,7.9 0 0 0 -4.49,1.87q1.35,-1.88 2.54,-3.85l0,0a4.28,4.28 0 0 0 3.56,0.9c1.77,-0.48 3.5,-2.61 3.58,-2.7a0.47,0.47 0 0 0 0.08,-0.41a0.46,0.46 0 0 0 -0.28,-0.31a8.69,8.69 0 0 0 -4.45,-0.55a3.29,3.29 0 0 0 -1.09,0.52c0.52,-1 1,-2 1.47,-3c2.51,-3.45 6,-6.91 7.72,-6.88a1.39,1.39 0 0 1 1.36,1.19c0.15,0.83 -0.36,2 -2.23,2.73a0.45,0.45 0 0 0 -0.28,0.59a0.46,0.46 0 0 0 0.6,0.28c2.41,-0.9 3,-2.57 2.83,-3.76a2.32,2.32 0 0 0 -2.26,-2c-1.8,0 -4.22,2.21 -6,4.23c3.54,-6.56 7.49,-8.8 10,-8c2.22,0.68 3.28,3.53 2.69,7.28m-16.4,9.33a3.21,3.21 0 0 1 1.85,-1.66a6.75,6.75 0 0 1 3.23,0.3a6.61,6.61 0 0 1 -2.64,1.87a3.18,3.18 0 0 1 -2.44,-0.5m17.3,-13.29a5.12,5.12 0 0 0 -3.31,-4.2c-2.3,-0.71 -5.85,0.53 -9.36,5.61a55.47,55.47 0 0 0 2.17,-10.46a5.22,5.22 0 0 0 3.29,2.6c2.44,0.64 5.45,-0.36 8.3,-2.68a64.81,64.81 0 0 1 -1.09,9.13m7.59,-31.29l-4.1,1.83a0.46,0.46 0 0 0 -0.27,0.43a0.5,0.5 0 0 0 0,0.19a0.47,0.47 0 0 0 0.61,0.23l3.65,-1.64c0,0.56 -0.09,1.12 -0.15,1.68l-7.14,3.19a0.46,0.46 0 0 0 -0.27,0.42a0.49,0.49 0 0 0 0,0.19a0.47,0.47 0 0 0 0.61,0.24l6.63,-3c-0.07,0.57 -0.16,1.14 -0.26,1.71l-10.37,4.64a0.47,0.47 0 0 0 -0.27,0.43a0.52,0.52 0 0 0 0,0.19a0.47,0.47 0 0 0 0.61,0.23l9.78,-4.38a45.28,45.28 0 0 1 -5,13.69c-3,2.93 -6.24,4.29 -8.74,3.64a4.55,4.55 0 0 1 -3.21,-3.35a6.28,6.28 0 0 1 1.19,-2.37a5.52,5.52 0 0 0 -0.3,0.8a0.55,0.55 0 0 0 0,0.13a0.59,0.59 0 0 0 0,0.13a3.56,3.56 0 0 0 2.51,2.76c1.68,0.44 3.84,-0.49 5.93,-2.55a0.47,0.47 0 0 0 0.14,-0.34a0.45,0.45 0 0 0 -0.14,-0.33c-1.71,-1.7 -3.47,-2.63 -5,-2.66a4.43,4.43 0 0 0 -4.32,2.1a40.11,40.11 0 0 0 0,-40.77a4.43,4.43 0 0 0 4.32,2.1c1.51,0 3.28,-1 5,-2.66a0.45,0.45 0 0 0 0.14,-0.33a0.46,0.46 0 0 0 -0.14,-0.33c-2.08,-2.06 -4.25,-3 -5.93,-2.56a3.57,3.57 0 0 0 -2.51,2.76a0.59,0.59 0 0 0 0,0.13a0.54,0.54 0 0 0 0,0.13a5.34,5.34 0 0 0 0.3,0.8a6.13,6.13 0 0 1 -0.96,-2.24a4.56,4.56 0 0 1 3.21,-3.35c2.5,-0.66 5.76,0.71 8.74,3.64a45.25,45.25 0 0 1 5,13.68l-9.78,-4.37a0.47,0.47 0 0 0 -0.61,0.23a0.49,0.49 0 0 0 0,0.19a0.46,0.46 0 0 0 0.27,0.42l10.37,4.64c0.1,0.57 0.18,1.14 0.26,1.72l-6.63,-3a0.46,0.46 0 0 0 -0.61,0.24a0.47,0.47 0 0 0 0,0.19a0.47,0.47 0 0 0 0.27,0.43l7.14,3.19c0.06,0.56 0.11,1.11 0.15,1.67l-3.65,-1.63a0.46,0.46 0 0 0 -0.61,0.23a0.51,0.51 0 0 0 0,0.19a0.47,0.47 0 0 0 0.27,0.42l4.1,1.83q0,1.06 0.05,2.12c0,0.71 0,1.41 -0.05,2.12m-15.95,19.16a2.68,2.68 0 0 1 1.8,-2a2.35,2.35 0 0 1 0.62,-0.08l0.11,0a6.69,6.69 0 0 1 4,2.06c-1.73,1.6 -3.43,2.33 -4.71,2a2.72,2.72 0 0 1 -1.8,-2m0,-42.56a2.71,2.71 0 0 1 1.8,-2c1.28,-0.33 3,0.4 4.71,2a6.65,6.65 0 0 1 -4,2.06l-0.11,0a2.61,2.61 0 0 1 -0.62,-0.08a2.7,2.7 0 0 1 -1.8,-2" class="cls-1"/>
  <path id="svg_32" fill="#ffffff" d="m180.55,61.25a2.32,2.32 0 1 0 -2.33,-2.33a2.32,2.32 0 0 0 2.33,2.33m0,-3.72a1.4,1.4 0 1 1 -1.4,1.4a1.4,1.4 0 0 1 1.4,-1.4" class="cls-1"/>
  <path id="svg_33" fill="#ffffff" d="m185.88,87.77c1.07,0.27 2.41,-0.29 3.7,-1.57a0.49,0.49 0 0 0 0,-0.66c-1.29,-1.27 -2.63,-1.84 -3.7,-1.56a2.3,2.3 0 0 0 -1.62,1.76a0.41,0.41 0 0 0 0,0.13a0.44,0.44 0 0 0 0,0.13a2.3,2.3 0 0 0 1.62,1.76m0.23,-2.89a3.06,3.06 0 0 1 2.46,1a3,3 0 0 1 -2.46,1a1,1 0 0 1 0,-2" class="cls-1"/>
  <path id="svg_34" fill="#ffffff" d="m180.55,143.76a2.33,2.33 0 1 0 2.32,2.32a2.33,2.33 0 0 0 -2.32,-2.32m0,3.73a1.4,1.4 0 1 1 1.39,-1.41a1.41,1.41 0 0 1 -1.39,1.41" class="cls-1"/>
  <path id="svg_35" fill="#ffffff" d="m185.88,121c1.07,0.28 2.41,-0.29 3.7,-1.57a0.48,0.48 0 0 0 0,-0.66c-1.29,-1.27 -2.63,-1.84 -3.7,-1.57a2.31,2.31 0 0 0 -1.62,1.77a0.4,0.4 0 0 0 0,0.13a0.36,0.36 0 0 0 0,0.12a2.32,2.32 0 0 0 1.62,1.77m0.23,-2.89a3,3 0 0 1 2.46,1a3,3 0 0 1 -2.46,1a1,1 0 0 1 0,-2" class="cls-1"/>
  <path id="svg_36" fill="#ffffff" d="m75.06,156.12a4.28,4.28 0 0 1 -3.52,-0.41a3.84,3.84 0 0 1 -2.19,-3.82l1.43,-0.12a2.58,2.58 0 0 0 1.54,2.71a2.61,2.61 0 0 0 2.36,0.23c0.38,-0.22 0.58,-0.46 1,-1.3l2.32,-4.08l1.26,0.7l-2.26,4.07c-0.86,1.53 -1.29,1.77 -1.91,2" class="cls-1"/>
  <path id="svg_37" fill="#ffffff" d="m89.23,162.43l-0.5,-2.19l-5,-1.39l-1.54,1.62l-1.53,-0.47l6.69,-6.9l1.38,0.4l2.14,9.38l-1.64,-0.45zm-1.64,-7.57l-2.72,2.81l3.55,1l-0.83,-3.81z" class="cls-1"/>
  <path id="svg_38" fill="#ffffff" d="m104.33,160.15c-0.7,0.57 -1.1,0.6 -2.62,0.54l-3.27,-0.11l-0.11,3.07l-1.43,-0.05l0.29,-8.44l5.17,0.17a2.73,2.73 0 0 1 1.77,0.43a2.76,2.76 0 0 1 1.13,2.39a2.66,2.66 0 0 1 -0.92,2m-2.31,-3.4l-3.45,-0.12l-0.08,2.51l3.27,0.12c1.53,0.05 2,-0.13 2.06,-1.15s-0.53,-1.31 -1.8,-1.36" class="cls-1"/>
  <path id="svg_39" fill="#ffffff" d="m116.19,162.5c-2.56,0.59 -5.33,-0.45 -6,-3.21l0,-0.22c-0.63,-2.79 1.61,-4.8 4.13,-5.37s5.37,0.4 6,3.2s-1.52,5 -4.13,5.59m-1.56,-7.36c-1.8,0.42 -3.45,1.79 -3,3.82s2.46,2.52 4.23,2.11s3.5,-1.79 3,-3.82s-2.48,-2.52 -4.27,-2.11" class="cls-1"/>
  <polygon id="svg_40" fill="#ffffff" points="134.35 154.91 126.69 151.95 129.72 157.46 128.46 158.15 124.39 150.73 125.67 150.03 133.3 153 130.29 147.5 131.54 146.81 135.61 154.22 134.35 154.91" class="cls-1"/>
 </g>
</svg>