<svg id="レイヤー_1" data-name="レイヤー 1" xmlns="http://www.w3.org/2000/svg" viewBox="0 0 205.01 244.7"><defs><style>.cls-1{fill:#040000;}</style></defs><title>logo</title><path class="cls-1" d="M58.25,224.31c-.53.73-.57,1.89-.57,3.57,0,0,0,2.87,0,4.83,0,2.46,0,6.4,0,6.4,0,1.68.09,2.69.63,3.48.34.51,1.25,1,3.38,1.26v.54c-1.74,0-3.48-.06-5.37-.06s-3.94,0-6,.06v-.54c2.18-.16,3.35-.66,3.82-1.45s.54-1.61.54-3.29l0-5.52s-7.08-.06-13,0l0,5.46c0,1.8.1,2.65.54,3.38s1.77,1.29,3.79,1.42v.54c-2,0-4-.06-5.91-.06s-3.31,0-5.39.06v-.54c1.45-.16,2.87-.45,3.5-1.52a6.7,6.7,0,0,0,.5-3.28s0-3.75,0-6.15c0-2,0-4.7,0-4.7,0-2.21-.19-3.44-.82-4.14a5.45,5.45,0,0,0-3.25-1.13v-.54c1.89,0,3.73,0,5.62,0s3.82,0,5.71,0v.54c-2,.22-3.28.6-3.81,1.55a6.83,6.83,0,0,0-.48,3.25l0,4.55h13v-4.64c0-1.79-.07-2.55-.63-3.37-.47-.66-1.8-1.17-3.66-1.33v-.54c1.89,0,3.79,0,5.68,0s3.78,0,5.68,0v.54c-2.18.32-3.07.79-3.5,1.39"/><path class="cls-1" d="M73.27,244.33c-1.89,0-3.54,0-5.4.06v-.54a5.82,5.82,0,0,0,3.19-1.11c.67-.66.8-1.67.8-3.47,0,0,0-3.86,0-6.16,0-2.11,0-5.4,0-5.4,0-1.73,0-3-.8-3.69a6.77,6.77,0,0,0-3.35-1.14v-.5c1.93,0,3.76,0,5.65,0s3.6,0,5.43,0v.54a5.84,5.84,0,0,0-3.29,1.2c-.6.73-.72,1.64-.72,3.6,0,0,0,3.22,0,5.3,0,2.34,0,6.09,0,6.09,0,1.9.12,3,.75,3.67a6.45,6.45,0,0,0,3.38,1.08v.54c-1.9,0-3.79-.06-5.65-.06"/><path class="cls-1" d="M99.91,243.28c-1.93,1.17-4,1.17-6.16,1.17-1.41,0-3.88-.06-4.23-.06H84.09v-.54a6.7,6.7,0,0,0,3.48-1.13c.66-.6.75-2.22.75-3.67,0,0,0-3.43,0-5.93,0-2.27,0-5.68,0-5.68,0-1.64-.1-2.62-.54-3.28s-1.48-.95-3.19-1.14v-.53s5.81-.16,6.91-.16c3.32,0,5.56.28,7.36,1.2a4.11,4.11,0,0,1,2.4,3.85,4.35,4.35,0,0,1-1.3,3.19,8.76,8.76,0,0,1-4.16,2.05v.16c4.58,1,6.84,2.93,6.84,6a5.11,5.11,0,0,1-2.74,4.51m-2.12-7.86a7.32,7.32,0,0,0-5.45-2h-1V239c0,1.3-.13,3.32.89,4.08a3.37,3.37,0,0,0,2.31.63,4.42,4.42,0,0,0,4.76-4.49,5.29,5.29,0,0,0-1.45-3.79M97,225c-1.1-1.23-3-2-5.68-2.06l0,9.76c4.54-.1,6.82-1.77,6.82-4.76A4.23,4.23,0,0,0,97,225"/><path class="cls-1" d="M112.81,244.33c-1.89,0-3.54,0-5.41.06v-.54a5.9,5.9,0,0,0,3.2-1.11c.66-.66.79-1.67.79-3.47,0,0,0-3.86,0-6.16,0-2.11,0-5.4,0-5.4,0-1.73,0-3-.79-3.69a6.79,6.79,0,0,0-3.35-1.14v-.5c1.93,0,3.76,0,5.65,0s3.6,0,5.43,0v.54a5.79,5.79,0,0,0-3.28,1.2c-.6.73-.73,1.64-.73,3.6,0,0,0,3.22,0,5.3,0,2.34,0,6.09,0,6.09,0,1.9.13,3,.76,3.67a6.43,6.43,0,0,0,3.37,1.08v.54c-1.89,0-3.79-.06-5.64-.06"/><path class="cls-1" d="M128.59,244.33c-1.89,0-3.88,0-5.71.06v-.51a6.05,6.05,0,0,0,3.25-1.13c.78-.79.78-2.08.78-4.29,0,0,0-3.28,0-5.36,0-1.83,0-4.7,0-4.7,0-2.3,0-3.57-.88-4.39a5.92,5.92,0,0,0-2.84-1.1v-.5c1.65,0,3.44,0,5.12,0s3.31,0,5,0v.5c-1.71.32-2.36.66-2.8,1.2-.66.85-.64,2.08-.64,4.26,0,0,0,2.93,0,4.79,0,2.06,0,5.3,0,5.3,0,2.3,0,3.64,1,4.39a6.32,6.32,0,0,0,3.31,1v.51c-1.89,0-3.69-.06-5.55-.06m17.92.38a28.84,28.84,0,0,1-5.61-.82,8.35,8.35,0,0,1-3.57-2.62l-7-7.7v-.09s2.08-2.12,3.88-4.1c1.64-1.8,3.69-3.92,3.69-5.08,0-.73-.41-1.27-1.83-1.39v-.5c1.39,0,2.77,0,4.2,0s2.8,0,4.23,0v.5a7.83,7.83,0,0,0-3.34,1.14A29.61,29.61,0,0,0,136,228.7L132.88,232l6.28,6.95a26.46,26.46,0,0,0,4.17,3.72,13.72,13.72,0,0,0,3.28,1.61Z"/><path class="cls-1" d="M164.66,244.33c-1.55,0-3.22,0-4.8.06v-.54c1.83-.28,2.4-1,2.52-1.64a5.32,5.32,0,0,0-.41-2.34l-1.76-4.73h-7.39l-1,3.06c-.79,2.43-.92,2.78-.92,3.67s1,1.8,3.72,2v.51c-1.61,0-3.16-.06-4.64-.06s-2.94,0-4.26.06v-.51a5.89,5.89,0,0,0,2.81-1.35c.86-.85,2.53-5.78,4-9.56,1.45-3.6,3.47-9.41,3.47-9.41l-.13-.72a4.42,4.42,0,0,0,2.21-1.77h.1s2.43,6.47,3.95,10.57c1.16,3.22,2.94,7.8,2.94,7.8a11.33,11.33,0,0,0,1.67,3.29,4.47,4.47,0,0,0,2.59,1.16v.51c-1.55,0-3.12-.06-4.7-.06m-8.14-19.13h-.06l-3,8.43s3.19,0,6.22,0c-1.39-3.63-3.12-8.43-3.12-8.43"/><path class="cls-1" d="M58.7,75.91a8.22,8.22,0,0,1-3.82,3.64l-.73-1.23a7,7,0,0,0,3.19-2.94c.83-1.39,1.21-2.5.24-3.07a1.28,1.28,0,0,0-.62-.2c-.51,0-1,.65-1.66,1.75-1.29,2.18-1.56,2.4-2,2.71a2.18,2.18,0,0,1-2.32,0c-1.77-1-1.25-3.15-.38-4.63a8.45,8.45,0,0,1,3.14-3.12L54.52,70a6.37,6.37,0,0,0-2.67,2.59c-.7,1.18-.87,2.11-.15,2.53a1,1,0,0,0,.57.17c.41,0,.8-.43,1.65-1.85,1.17-2,2.4-3.68,4.33-2.54s1.5,3.24.46,5"/><path class="cls-1" d="M68.1,63.9l-2.17-.6L62.35,67,63,69.13l-1.14,1.18L59,61.13l1-1,9.28,2.58Zm-7.44-2.14,1.19,3.72,2.56-2.65Z"/><polygon class="cls-1" points="72.5 60.52 67.66 53.59 68.83 52.76 73.67 59.69 72.5 60.52"/><path class="cls-1" d="M82.14,55.37a8.2,8.2,0,0,1-5.22.75L77,54.69a7,7,0,0,0,4.31-.54c1.47-.66,2.43-1.33,2-2.36a1.36,1.36,0,0,0-.39-.52c-.43-.28-1.2-.05-2.37.46-2.31,1-2.66,1.06-3.2,1a2.19,2.19,0,0,1-1.89-1.36c-.83-1.88.81-3.29,2.38-4a8.76,8.76,0,0,1,4.37-.73l-.09,1.45a6.42,6.42,0,0,0-3.68.56c-1.25.56-1.93,1.22-1.58,2a.94.94,0,0,0,.36.46c.35.22.91.12,2.41-.56,2.1-.94,4.09-1.6,5,.44s-.66,3.5-2.51,4.33"/><path class="cls-1" d="M94.31,51.81c-2.6.42-5.28-.81-5.74-3.6l0-.22c-.45-2.83,1.93-4.67,4.48-5.08s5.33.75,5.78,3.59-1.85,4.89-4.48,5.31m-1.07-7.44c-1.83.29-3.56,1.56-3.23,3.6s2.28,2.68,4.08,2.39,3.61-1.56,3.28-3.61S95,44.08,93.23,44.37"/><polygon class="cls-1" points="111.11 51.51 106.57 44.67 105.86 50.9 104.42 50.75 105.39 42.35 106.83 42.5 111.35 49.34 112.07 43.11 113.5 43.27 112.53 51.67 111.11 51.51"/><path class="cls-1" d="M121.32,54.72a8.18,8.18,0,0,1-4.22-3.16l1.1-.93a7,7,0,0,0,3.42,2.67c1.51.59,2.66.78,3.07-.28a1.24,1.24,0,0,0,.09-.64c-.1-.5-.81-.89-2-1.34-2.36-.92-2.63-1.14-3-1.53a2.19,2.19,0,0,1-.37-2.3c.74-1.91,2.9-1.75,4.5-1.13a8.6,8.6,0,0,1,3.6,2.58l-1.09,1a6.3,6.3,0,0,0-3-2.22c-1.28-.5-2.22-.51-2.52.27a1,1,0,0,0-.06.58c.09.41.56.73,2.1,1.32,2.15.83,4,1.77,3.23,3.85-.87,2.24-3,2-4.83,1.28"/><path class="cls-1" d="M138.44,65.49l-3.37-3.18,5.81-6.15,3.36,3.19a4.23,4.23,0,1,1-5.8,6.14m4.82-5.1-2.32-2.2-3.84,4.06,2.32,2.2a2.66,2.66,0,0,0,4-.07,2.58,2.58,0,0,0-.19-4"/><path class="cls-1" d="M149.33,77.82a4.3,4.3,0,0,1-3.18-2.25,4.66,4.66,0,0,1-.77-3.32,3.52,3.52,0,0,1,2-2.24l4.07-2.5.75,1.24-4.06,2.5c-1,.6-1.16.84-1.28,1.22a3.4,3.4,0,0,0,.61,2.42,2.8,2.8,0,0,0,1.95,1.48c.34,0,.61-.05,1.51-.6L155,73.28l.75,1.22L151.65,77a3.59,3.59,0,0,1-2.32.82"/><path class="cls-1" d="M107.41,124.17a7.47,7.47,0,0,0-2.66-.73,7.71,7.71,0,0,1,1.08,8.8,8.2,8.2,0,0,1-7.94,4.38,7.71,7.71,0,0,1-1.08-8.81,8.38,8.38,0,0,1,1.38-1.91h0l.6-.56,6.69-6.28,9.24-8.67,11.1,4.28h0a7.72,7.72,0,0,0,6.18-.07,8.15,8.15,0,0,0,4.88-7.75h0a15.49,15.49,0,0,0-1.22-5.26,15.29,15.29,0,0,0-2.39-4l0-.06c-.13-.14-.25-.3-.37-.43h0A7.72,7.72,0,0,0,124,95.34a8.46,8.46,0,0,0-2.3,1.54l-9.81,9.21-.53.5-16.24-6.27,6-5.67L111,85.43a8.06,8.06,0,0,0,1.67-2.2,7.69,7.69,0,0,0-1.18-8.93h0c-.13-.13-.28-.27-.41-.39l0,0a16.19,16.19,0,0,0-9-4.2h0a8.17,8.17,0,0,0-8.05,4.38,7.62,7.62,0,0,0,3.27,10.45,7.75,7.75,0,0,0,2.66.74,7.7,7.7,0,0,1-1.07-8.81,8.13,8.13,0,0,1,7.93-4.38,7.69,7.69,0,0,1,1.08,8.8,8.16,8.16,0,0,1-1.38,1.91h0l-.6.56-6.69,6.28-9.24,8.67L78.77,94h0a7.78,7.78,0,0,0-6.18.06,8.18,8.18,0,0,0-4.89,7.76h0a16,16,0,0,0,1.22,5.26,15.37,15.37,0,0,0,2.82,4.51h0a7.7,7.7,0,0,0,8.84,1.75,8.3,8.3,0,0,0,2.3-1.53l9.81-9.21.53-.49,16.24,6.27-6,5.66-9.81,9.22A8.32,8.32,0,0,0,92,125.43a7.7,7.7,0,0,0,1.19,8.93h0a15.4,15.4,0,0,0,4.31,3.09,15.57,15.57,0,0,0,5.17,1.54h0a8.18,8.18,0,0,0,8.06-4.39,7.6,7.6,0,0,0-3.26-10.44M87.8,100.24l-6.69,6.27-.6.56h0a8.14,8.14,0,0,1-2,1.26,7.71,7.71,0,0,1-8.72-1.63c-.4-5.59,6.76-11.2,13.08-8.61l5.11,2Zm29,8.2,6.69-6.28.59-.56h0a8.55,8.55,0,0,1,2-1.26,7.71,7.71,0,0,1,8.72,1.63c.41,5.59-6.76,11.2-13.08,8.62l-5.1-2Z"/><path class="cls-1" d="M58.93,26.8a2.33,2.33,0,1,0-2.33-2.33,2.33,2.33,0,0,0,2.33,2.33m0-3.73a1.4,1.4,0,1,1-1.4,1.4,1.4,1.4,0,0,1,1.4-1.4"/><path class="cls-1" d="M85.74,20.75l.14,0,.13,0a2.27,2.27,0,0,0,1.76-1.62c.28-1.06-.29-2.41-1.56-3.69a.48.48,0,0,0-.66,0c-1.27,1.28-1.84,2.63-1.57,3.69a2.29,2.29,0,0,0,1.77,1.62m.14-4.3a3,3,0,0,1,1,2.45,1,1,0,0,1-2,0,3,3,0,0,1,1-2.45"/><path class="cls-1" d="M146.08,26.8a2.33,2.33,0,1,0-2.33-2.33,2.34,2.34,0,0,0,2.33,2.33m0-3.73a1.4,1.4,0,1,1-1.4,1.4,1.4,1.4,0,0,1,1.4-1.4"/><path class="cls-1" d="M119,20.75l.12,0,.14,0A2.29,2.29,0,0,0,121,19.13c.27-1.06-.3-2.41-1.57-3.69a.47.47,0,0,0-.66,0c-1.27,1.28-1.84,2.63-1.57,3.69A2.29,2.29,0,0,0,119,20.75m.12-4.3a3,3,0,0,1,1,2.45,1,1,0,0,1-2,0,3,3,0,0,1,1-2.45"/><path class="cls-1" d="M24.46,143.76a2.33,2.33,0,1,0,2.33,2.32,2.33,2.33,0,0,0-2.33-2.32m0,3.73a1.4,1.4,0,1,1,1.4-1.41,1.41,1.41,0,0,1-1.4,1.41"/><path class="cls-1" d="M19.13,121a2.31,2.31,0,0,0,1.61-1.77.31.31,0,0,0,0-.12.35.35,0,0,0,0-.13,2.29,2.29,0,0,0-1.61-1.77c-1.06-.27-2.41.3-3.69,1.57a.48.48,0,0,0,0,.66c1.28,1.27,2.63,1.84,3.69,1.57m-2.68-1.89a3,3,0,0,1,2.45-1,1,1,0,0,1,0,2,3,3,0,0,1-2.45-1"/><path class="cls-1" d="M24.46,61.25a2.32,2.32,0,1,0-2.32-2.33,2.33,2.33,0,0,0,2.32,2.33m0-3.72a1.4,1.4,0,1,1-1.39,1.4,1.41,1.41,0,0,1,1.39-1.4"/><path class="cls-1" d="M19.13,84c-1.07-.28-2.41.29-3.7,1.56a.5.5,0,0,0,0,.66c1.28,1.27,2.63,1.84,3.7,1.56A2.28,2.28,0,0,0,20.74,86a.39.39,0,0,0,0-.13.36.36,0,0,0,0-.13A2.27,2.27,0,0,0,19.13,84m-.23,2.89a3,3,0,0,1-2.45-1,3,3,0,0,1,2.45-1,1,1,0,0,1,0,2"/><path class="cls-1" d="M146.08,178.22a2.33,2.33,0,1,0,2.33,2.33,2.33,2.33,0,0,0-2.33-2.33m0,3.72a1.39,1.39,0,1,1,1.4-1.39,1.4,1.4,0,0,1-1.4,1.39"/><path class="cls-1" d="M119.27,184.26l-.14,0-.12,0a2.3,2.3,0,0,0-1.76,1.62c-.27,1.06.29,2.41,1.57,3.7a.49.49,0,0,0,.66,0c1.27-1.28,1.84-2.63,1.57-3.7a2.31,2.31,0,0,0-1.77-1.62m-.14,4.3a3,3,0,0,1-1-2.45,1,1,0,0,1,2,0,3,3,0,0,1-1,2.45"/><path class="cls-1" d="M192.45,77.82a67.68,67.68,0,0,0-19.87-45.34h0s0,0,0,0l0,0h0a67.69,67.69,0,0,0-45.35-19.87,48.47,48.47,0,0,0-49.37,0A67.68,67.68,0,0,0,32.47,32.43h0l0,0,0,0h0A67.7,67.7,0,0,0,12.55,77.82a48.49,48.49,0,0,0,0,49.37,67.69,67.69,0,0,0,19.87,45.34h0l0,0,0,0h0a67.63,67.63,0,0,0,45.35,19.87,48.46,48.46,0,0,0,49.37,0,67.65,67.65,0,0,0,45.35-19.87h0l0,0,0,0h0a67.68,67.68,0,0,0,19.87-45.34,48.44,48.44,0,0,0,0-49.37m-1.14,48.87a.65.65,0,0,0-.09.3A66.88,66.88,0,0,1,127,191.23a.53.53,0,0,0-.29.08,47.2,47.2,0,0,1-48.37,0,.54.54,0,0,0-.3-.08A66.89,66.89,0,0,1,13.78,127a.63.63,0,0,0-.08-.3,47.19,47.19,0,0,1,0-48.37.62.62,0,0,0,.08-.29A66.89,66.89,0,0,1,78,13.79a.59.59,0,0,0,.3-.09,47.23,47.23,0,0,1,48.37,0,.58.58,0,0,0,.29.09A66.87,66.87,0,0,1,191.23,78a.64.64,0,0,0,.09.29,47.24,47.24,0,0,1,0,48.37"/><path class="cls-1" d="M197.85,76.34a72.07,72.07,0,0,0-21.07-48.06h0l0,0,0,0h0A72.12,72.12,0,0,0,128.67,7.16a51.41,51.41,0,0,0-52.33,0A72.11,72.11,0,0,0,28.28,28.23h0l0,0,0,0h0A72.07,72.07,0,0,0,7.16,76.34a51.41,51.41,0,0,0,0,52.33,72.06,72.06,0,0,0,21.07,48.06h0l0,0s0,0,0,0h0a72.09,72.09,0,0,0,48.06,21.07,51.46,51.46,0,0,0,52.33,0,72.09,72.09,0,0,0,48.06-21.07h0l0,0,0,0h0a72.06,72.06,0,0,0,21.07-48.06,51.43,51.43,0,0,0,0-52.33M196.42,128a.78.78,0,0,0-.11.37,70.7,70.7,0,0,1-67.9,67.9.78.78,0,0,0-.37.11,49.89,49.89,0,0,1-51.08,0,.78.78,0,0,0-.37-.11,70.69,70.69,0,0,1-67.9-67.9.86.86,0,0,0-.1-.37A49.85,49.85,0,0,1,8.59,77a.76.76,0,0,0,.1-.36,70.7,70.7,0,0,1,67.9-67.9A.76.76,0,0,0,77,8.59a49.88,49.88,0,0,1,51.08,0,.77.77,0,0,0,.37.11,70.71,70.71,0,0,1,67.9,67.9.69.69,0,0,0,.11.36,49.88,49.88,0,0,1,0,51.09"/><path class="cls-1" d="M58.93,178.22a2.33,2.33,0,1,0,2.33,2.33,2.33,2.33,0,0,0-2.33-2.33m0,3.72a1.39,1.39,0,1,1,1.4-1.39,1.39,1.39,0,0,1-1.4,1.39"/><path class="cls-1" d="M86,184.26l-.13,0-.14,0A2.3,2.3,0,0,0,84,185.88c-.27,1.06.3,2.41,1.57,3.7a.5.5,0,0,0,.66,0c1.27-1.28,1.84-2.63,1.56-3.7A2.29,2.29,0,0,0,86,184.26m-.13,4.3a3,3,0,0,1-1-2.45,1,1,0,0,1,2,0,3,3,0,0,1-1,2.45"/><path class="cls-1" d="M195.46,97.34a.48.48,0,0,0,0-.07,46.69,46.69,0,0,0-6.24-18.55A65.62,65.62,0,0,0,126.3,15.79a46.62,46.62,0,0,0-18.56-6.23h-.06a46.5,46.5,0,0,0-10.35,0h-.06a46.59,46.59,0,0,0-18.56,6.23A65.63,65.63,0,0,0,15.78,78.71,46.73,46.73,0,0,0,9.56,97.27a.26.26,0,0,0,0,.07,46.65,46.65,0,0,0,0,10.34.25.25,0,0,0,0,.07,46.8,46.8,0,0,0,6.22,18.56,65.63,65.63,0,0,0,62.93,62.92,46.73,46.73,0,0,0,18.56,6.23h.06a46.56,46.56,0,0,0,10.35,0h.06a46.76,46.76,0,0,0,18.56-6.23,65.62,65.62,0,0,0,62.92-62.92,46.76,46.76,0,0,0,6.24-18.56.55.55,0,0,0,0-.07,48.38,48.38,0,0,0,0-10.34m-7.2-19.11c-2.85-2.32-5.86-3.32-8.3-2.69a5.23,5.23,0,0,0-3.29,2.61,55.36,55.36,0,0,0-2.17-10.46c3.52,5.08,7.06,6.32,9.36,5.61a5.11,5.11,0,0,0,3.31-4.19,64.85,64.85,0,0,1,1.09,9.13m-65.49,97.84a.47.47,0,0,0-.22.06,39.17,39.17,0,0,1-40.11,0,.45.45,0,0,0-.22-.06,55.5,55.5,0,0,1-53.28-53.28.51.51,0,0,0-.07-.22,39.23,39.23,0,0,1,0-40.11.46.46,0,0,0,.07-.21A55.48,55.48,0,0,1,82.23,29a.43.43,0,0,0,.22-.07,39.18,39.18,0,0,1,40.11,0,.45.45,0,0,0,.22.07,55.49,55.49,0,0,1,53.28,53.28.47.47,0,0,0,.07.21,39.17,39.17,0,0,1,0,40.11.52.52,0,0,0-.07.22,55.51,55.51,0,0,1-53.28,53.28m26.43-6.19a3.2,3.2,0,0,1,.51,2.44,6.78,6.78,0,0,1-1.87,2.64,6.62,6.62,0,0,1-.3-3.23,3.21,3.21,0,0,1,1.66-1.86m-91.74,1.86a6.63,6.63,0,0,1-.31,3.23,6.73,6.73,0,0,1-1.87-2.64,3.17,3.17,0,0,1,.51-2.44,3.25,3.25,0,0,1,1.66,1.86M55.81,35.13a3.17,3.17,0,0,1-.51-2.44A6.81,6.81,0,0,1,57.16,30a6.64,6.64,0,0,1,.31,3.23,3.24,3.24,0,0,1-1.66,1.86m91.74-1.86a6.62,6.62,0,0,1,.3-3.23,6.86,6.86,0,0,1,1.87,2.65,3.2,3.2,0,0,1-.51,2.44,3.2,3.2,0,0,1-1.66-1.86m38.74,31.86c.59,3.74-.46,6.6-2.69,7.28-2.51.77-6.46-1.47-10-8,1.8,2,4.22,4.25,6,4.22a2.31,2.31,0,0,0,2.26-2c.2-1.17-.42-2.86-2.83-3.75a.46.46,0,1,0-.32.87c1.88.69,2.38,1.9,2.23,2.72a1.38,1.38,0,0,1-1.36,1.19c-1.76,0-5.21-3.43-7.72-6.88-.47-1-1-2-1.47-3a3.33,3.33,0,0,0,1.09.52c1.78.48,4.34-.5,4.45-.55a.46.46,0,0,0,.2-.72c-.08-.09-1.8-2.22-3.58-2.7a4.33,4.33,0,0,0-3.56.9s0,0,0,0q-1.19-2-2.54-3.84a8,8,0,0,0,4.49,1.87c3.76.25,8.48-2.51,9.46-3.1a64.52,64.52,0,0,1,5.9,14.9m-16.4-9.33a3.2,3.2,0,0,1,2.44-.51A6.68,6.68,0,0,1,175,57.16a6.68,6.68,0,0,1-3.23.3,3.21,3.21,0,0,1-1.85-1.66m1.1-3.39c-3.11-.2-5.21-2.79-5.83-3.66.73-.78,3.15-3.07,6.26-2.87s6.74,2.79,8.08,3.81c-1.46.83-5.43,2.93-8.5,2.72M170.5,39a7.06,7.06,0,0,1-1.64,3,7,7,0,0,1-.76-3.37,3.38,3.38,0,0,1,1.52-2.18A3.33,3.33,0,0,1,170.5,39m-4.13-2.07a7.07,7.07,0,0,1-3.37-.75,7.13,7.13,0,0,1,3-1.63,3.28,3.28,0,0,1,2.52.87,3.4,3.4,0,0,1-2.18,1.51m1-3.19a3.49,3.49,0,0,0-1.49-.13c-1.91.26-4,2.26-4.07,2.34a.49.49,0,0,0-.14.4.5.5,0,0,0,.24.34,10.18,10.18,0,0,0,4,1.19,3.83,3.83,0,0,0,.53,0,3.46,3.46,0,0,0,1-.29,3.47,3.47,0,0,0-.29,1,4,4,0,0,0,0,.52,10.16,10.16,0,0,0,1.19,4,.45.45,0,0,0,.34.24.47.47,0,0,0,.4-.14c.08-.09,2.08-2.16,2.34-4.07a3.48,3.48,0,0,0-.13-1.5,64.7,64.7,0,0,1,8.05,10.83c-1.74-1.25-5-3.28-7.87-3.47-4.21-.27-7.14,3.32-7.27,3.47l0,.09c-1.15-1.39-2.36-2.73-3.65-4s-2.63-2.51-4-3.65a.29.29,0,0,0,.09-.06c.15-.12,3.74-3.06,3.47-7.26-.19-2.9-2.22-6.13-3.47-7.87a64.58,64.58,0,0,1,10.82,8m-8.28-.11c.2,3.11-2.09,5.53-2.88,6.26-.86-.62-3.45-2.72-3.66-5.82s1.9-7,2.73-8.51c1,1.34,3.61,5,3.81,8.08M139.87,18.72a64.67,64.67,0,0,1,14.89,5.91c-.59,1-3.35,5.7-3.1,9.46a7.94,7.94,0,0,0,1.86,4.49q-1.88-1.35-3.84-2.54l0,0a4.32,4.32,0,0,0,.89-3.56c-.48-1.78-2.61-3.5-2.7-3.58a.45.45,0,0,0-.41-.09.46.46,0,0,0-.31.28,8.71,8.71,0,0,0-.55,4.44,3.38,3.38,0,0,0,.53,1.1q-1.46-.78-3-1.47c-3.45-2.51-6.92-6-6.88-7.72a1.39,1.39,0,0,1,1.2-1.37c.82-.14,2,.36,2.72,2.24a.46.46,0,0,0,.6.27.45.45,0,0,0,.26-.59c-.89-2.42-2.57-3-3.75-2.84a2.32,2.32,0,0,0-2,2.27c0,1.8,2.21,4.22,4.22,6-6.55-3.55-8.8-7.49-8-10,.69-2.22,3.53-3.28,7.28-2.7m-4-.89a5.1,5.1,0,0,0-4.2,3.31c-.71,2.3.53,5.85,5.61,9.36a56.33,56.33,0,0,0-10.45-2.17,5.22,5.22,0,0,0,2.6-3.28c.63-2.43-.37-5.45-2.69-8.3a65.91,65.91,0,0,1,9.13,1.09M80.08,16.07a45.24,45.24,0,0,1,13.69-5l-4.38,9.78a.48.48,0,0,0,.24.61.54.54,0,0,0,.19,0,.47.47,0,0,0,.42-.27l4.64-10.37c.58-.09,1.15-.18,1.72-.25l-3,6.63a.47.47,0,0,0,.24.61.42.42,0,0,0,.19,0,.47.47,0,0,0,.43-.27l3.19-7.14c.56-.06,1.12-.11,1.68-.15L97.71,14a.46.46,0,0,0,.23.61.58.58,0,0,0,.19,0,.46.46,0,0,0,.42-.27l1.83-4.1c.71,0,1.41,0,2.12,0s1.42,0,2.12,0l1.83,4.1a.46.46,0,0,0,.43.27.51.51,0,0,0,.18,0,.46.46,0,0,0,.24-.61l-1.63-3.66c.56,0,1.12.09,1.68.15l3.19,7.14a.49.49,0,0,0,.43.27.41.41,0,0,0,.18,0,.46.46,0,0,0,.23-.61l-3-6.63c.58.07,1.15.16,1.72.25l4.64,10.37a.46.46,0,0,0,.42.27.54.54,0,0,0,.2,0,.47.47,0,0,0,.23-.61L111.25,11a45.16,45.16,0,0,1,13.68,5c2.94,3,4.3,6.24,3.65,8.74a4.58,4.58,0,0,1-3.35,3.2,6.16,6.16,0,0,1-2.36-1.19,5,5,0,0,0,.79.29l.13,0,.13,0a3.57,3.57,0,0,0,2.76-2.5c.44-1.69-.5-3.85-2.56-5.93a.44.44,0,0,0-.33-.14.43.43,0,0,0-.32.14c-1.69,1.71-2.62,3.48-2.67,5a4.42,4.42,0,0,0,2.1,4.33,40.08,40.08,0,0,0-40.77,0,4.43,4.43,0,0,0,2.1-4.33,7.91,7.91,0,0,0-2.67-5,.43.43,0,0,0-.33-.14.44.44,0,0,0-.33.14c-2.06,2.08-3,4.24-2.56,5.93a3.59,3.59,0,0,0,2.76,2.5l.13,0,.13,0a5.29,5.29,0,0,0,.79-.29A6.2,6.2,0,0,1,79.79,28a4.58,4.58,0,0,1-3.36-3.2c-.65-2.5.71-5.76,3.64-8.74m41.63,7.59a6.71,6.71,0,0,1,2.07-4c1.6,1.73,2.33,3.42,2,4.7a2,2,0,0,1-4,0,2.46,2.46,0,0,1-.08-.62.1.1,0,0,1,0-.05.12.12,0,0,0,0-.06m-38.42.06v.05a2.44,2.44,0,0,1-.07.62,2.71,2.71,0,0,1-2,1.8,2.69,2.69,0,0,1-2-1.8c-.33-1.28.39-3,2-4.7a6.59,6.59,0,0,1,2.07,4v.06m-5.07-7c-2.32,2.85-3.31,5.87-2.69,8.3a5.2,5.2,0,0,0,2.6,3.28A56.29,56.29,0,0,0,67.69,30.5C72.77,27,74,23.44,73.3,21.14a5.12,5.12,0,0,0-4.21-3.31,66.06,66.06,0,0,1,9.13-1.09m-13.09,2c3.75-.59,6.6.47,7.28,2.7.77,2.51-1.47,6.45-8,10,2-1.8,4.26-4.22,4.23-6a2.32,2.32,0,0,0-2-2.27c-1.18-.2-2.87.42-3.75,2.84a.46.46,0,0,0,.86.32c.7-1.88,1.9-2.38,2.73-2.24a1.38,1.38,0,0,1,1.19,1.37c0,1.75-3.43,5.2-6.88,7.72q-1.5.69-3,1.47a3.21,3.21,0,0,0,.53-1.1c.48-1.77-.51-4.34-.55-4.44a.47.47,0,0,0-.32-.28.45.45,0,0,0-.41.09c-.09.07-2.22,1.8-2.7,3.58a4.33,4.33,0,0,0,.9,3.56l0,0q-2,1.19-3.84,2.54a8,8,0,0,0,1.86-4.49c.25-3.75-2.51-8.49-3.1-9.46a64.79,64.79,0,0,1,14.89-5.91M52.42,34c-.2,3.1-2.8,5.2-3.66,5.82-.78-.73-3.08-3.14-2.87-6.26s2.79-6.74,3.81-8.08C50.53,27,52.62,31,52.42,34m-17,2.42a3.39,3.39,0,0,1,1.52,2.18A7,7,0,0,1,36.15,42a7,7,0,0,1-1.64-3,3.31,3.31,0,0,1,.87-2.51m1.07-1.07A3.29,3.29,0,0,1,39,34.51a7,7,0,0,1,3,1.63,7,7,0,0,1-3.36.75,3.39,3.39,0,0,1-2.19-1.51m-2.73,2.21a3.55,3.55,0,0,0-.13,1.5c.26,1.91,2.26,4,2.34,4.07a.48.48,0,0,0,.4.14.45.45,0,0,0,.34-.24,10.16,10.16,0,0,0,1.19-4,3.43,3.43,0,0,0,0-.52,3.58,3.58,0,0,0-.28-1,3.39,3.39,0,0,0,1,.29,3.78,3.78,0,0,0,.52,0,10.21,10.21,0,0,0,4-1.19.5.5,0,0,0,.23-.34.48.48,0,0,0-.13-.4c-.09-.08-2.16-2.08-4.07-2.34a3.51,3.51,0,0,0-1.5.13,65,65,0,0,1,10.83-8c-1.25,1.74-3.28,5-3.47,7.87-.27,4.21,3.31,7.14,3.47,7.26a.24.24,0,0,0,.09.06c-1.39,1.14-2.73,2.36-4,3.65s-2.5,2.62-3.64,4a.48.48,0,0,0-.05-.09c-.13-.15-3.07-3.74-7.27-3.47-2.9.19-6.14,2.22-7.87,3.47a65,65,0,0,1,8.05-10.83m-.12,8.29c3.1-.2,5.52,2.09,6.25,2.87-.61.87-2.71,3.46-5.82,3.66s-7-1.89-8.51-2.72c1.33-1,5-3.61,8.08-3.81M18.73,65.13a64.31,64.31,0,0,1,5.9-14.9c1,.6,5.7,3.35,9.46,3.1a7.93,7.93,0,0,0,4.48-1.87Q37.23,53.35,36,55.32l0,0a4.33,4.33,0,0,0-3.56-.9,8.77,8.77,0,0,0-3.58,2.7.46.46,0,0,0,.19.72,8.76,8.76,0,0,0,4.45.55,3.36,3.36,0,0,0,1.09-.52c-.52,1-1,2-1.47,3-2.52,3.44-6,6.91-7.72,6.88A1.39,1.39,0,0,1,24,66.49c-.13-.82.36-2,2.25-2.72a.47.47,0,0,0,.27-.6.46.46,0,0,0-.59-.27c-2.41.9-3,2.58-2.84,3.75a2.31,2.31,0,0,0,2.27,2c1.8,0,4.22-2.21,6-4.22-3.55,6.56-7.5,8.8-10,8-2.22-.68-3.28-3.54-2.68-7.28m16.4-9.33a3.16,3.16,0,0,1-1.85,1.66,6.68,6.68,0,0,1-3.23-.3,6.66,6.66,0,0,1,2.64-1.87,3.19,3.19,0,0,1,2.44.51M17.83,69.1a5.1,5.1,0,0,0,3.32,4.19c2.29.71,5.84-.52,9.36-5.61a55.71,55.71,0,0,0-2.18,10.46A5.19,5.19,0,0,0,25,75.53c-2.44-.63-5.45.37-8.31,2.69a66.93,66.93,0,0,1,1.09-9.13M11,111.25l9.78,4.38a.47.47,0,0,0,.62-.23.56.56,0,0,0,0-.19.46.46,0,0,0-.27-.43l-10.36-4.64c-.1-.57-.19-1.14-.26-1.71l6.63,3a.47.47,0,0,0,.61-.24.39.39,0,0,0,0-.19.46.46,0,0,0-.28-.42l-7.14-3.19c-.06-.56-.1-1.12-.15-1.68L14,107.3a.47.47,0,0,0,.62-.23.44.44,0,0,0,0-.19.46.46,0,0,0-.27-.43l-4.09-1.83c0-.71-.06-1.41-.06-2.12s0-1.41.06-2.12l4.09-1.83a.47.47,0,0,0,.27-.42.45.45,0,0,0,0-.19.47.47,0,0,0-.62-.23L10.3,99.34c0-.56.09-1.12.15-1.67l7.14-3.19a.47.47,0,0,0,.28-.43.37.37,0,0,0,0-.19.46.46,0,0,0-.61-.24l-6.63,3c.07-.58.16-1.15.26-1.72l10.36-4.64a.46.46,0,0,0,.27-.42.53.53,0,0,0,0-.19.47.47,0,0,0-.62-.23L11,93.76a45.21,45.21,0,0,1,5-13.68c3-2.93,6.24-4.3,8.75-3.64A4.57,4.57,0,0,1,28,79.79a6.14,6.14,0,0,1-1.19,2.36,5.35,5.35,0,0,0,.3-.8.74.74,0,0,0,0-.13.78.78,0,0,0,0-.13,3.56,3.56,0,0,0-2.5-2.76c-1.68-.44-3.85.49-5.93,2.56a.47.47,0,0,0-.14.33.45.45,0,0,0,.14.33c1.71,1.7,3.48,2.63,5,2.66A4.42,4.42,0,0,0,28,82.12a40.13,40.13,0,0,0,0,40.77,4.41,4.41,0,0,0-4.32-2.1c-1.5,0-3.27,1-5,2.66a.45.45,0,0,0-.14.33.48.48,0,0,0,.14.34c2.08,2.06,4.25,3,5.93,2.55a3.55,3.55,0,0,0,2.5-2.76.77.77,0,0,0,0-.13.74.74,0,0,0,0-.13,5.52,5.52,0,0,0-.3-.8A6.29,6.29,0,0,1,28,125.22a4.57,4.57,0,0,1-3.2,3.35c-2.51.65-5.78-.71-8.75-3.64a45.24,45.24,0,0,1-5-13.69m15.16-30a2.7,2.7,0,0,1-1.8,2,2.67,2.67,0,0,1-.63.08h-.1a6.6,6.6,0,0,1-4-2.06c1.72-1.6,3.43-2.32,4.7-2a2.7,2.7,0,0,1,1.8,2m0,42.56a2.71,2.71,0,0,1-1.8,2c-1.27.33-3-.4-4.7-2a6.64,6.64,0,0,1,4-2.06h.1a2.39,2.39,0,0,1,.63.08,2.68,2.68,0,0,1,1.8,2m-9.45,3c2.85,2.32,5.87,3.32,8.31,2.68a5.17,5.17,0,0,0,3.28-2.6,55.82,55.82,0,0,0,2.18,10.46c-3.52-5.08-7.07-6.32-9.36-5.61a5.11,5.11,0,0,0-3.32,4.2,66.88,66.88,0,0,1-1.09-9.13m2,13.09c-.6-3.75.46-6.6,2.68-7.28,2.51-.77,6.46,1.47,10,8-1.8-2-4.22-4.26-6-4.23a2.32,2.32,0,0,0-2.27,2c-.2,1.18.42,2.86,2.84,3.76a.46.46,0,0,0,.32-.87c-1.88-.7-2.38-1.9-2.25-2.73a1.4,1.4,0,0,1,1.37-1.19c1.76,0,5.21,3.43,7.72,6.88.46,1,.95,2,1.47,3a3.31,3.31,0,0,0-1.09-.52,8.68,8.68,0,0,0-4.45.55.46.46,0,0,0-.28.31.47.47,0,0,0,.09.41c.07.09,1.8,2.22,3.58,2.7a4.28,4.28,0,0,0,3.56-.9l0,0q1.19,2,2.53,3.85a7.88,7.88,0,0,0-4.48-1.87c-3.76-.25-8.49,2.5-9.46,3.1a64.2,64.2,0,0,1-5.9-14.89m16.4,9.33a3.17,3.17,0,0,1-2.44.5,6.59,6.59,0,0,1-2.64-1.87,6.74,6.74,0,0,1,3.23-.3,3.16,3.16,0,0,1,1.85,1.66M34,152.59c3.11.2,5.21,2.79,5.82,3.66-.73.78-3.15,3.08-6.25,2.87s-6.75-2.79-8.08-3.8c1.46-.84,5.43-2.93,8.51-2.73M34.51,166a7,7,0,0,1,1.64-3,7,7,0,0,1,.75,3.37,3.38,3.38,0,0,1-1.52,2.18,3.32,3.32,0,0,1-.87-2.51m4.13,2.07a6.94,6.94,0,0,1,3.36.75,7,7,0,0,1-3,1.63,3.31,3.31,0,0,1-2.51-.88,3.39,3.39,0,0,1,2.19-1.51m-1.05,3.19a3.52,3.52,0,0,0,1.5.12c1.91-.26,4-2.25,4.07-2.33a.49.49,0,0,0,.13-.4.48.48,0,0,0-.23-.35,10.24,10.24,0,0,0-4-1.19,4.33,4.33,0,0,0-.52,0,3.63,3.63,0,0,0-1,.29,3.45,3.45,0,0,0,.28-1,3.52,3.52,0,0,0,0-.52,10.19,10.19,0,0,0-1.19-4,.44.44,0,0,0-.34-.24.46.46,0,0,0-.4.14c-.08.09-2.08,2.15-2.34,4.07a3.52,3.52,0,0,0,.13,1.5,64.78,64.78,0,0,1-8.05-10.83c1.74,1.25,5,3.28,7.87,3.48,4.21.27,7.14-3.32,7.27-3.47l.05-.09q1.72,2.08,3.64,4c1.29,1.28,2.63,2.5,4,3.65l-.09.05c-.16.13-3.74,3.06-3.47,7.27.19,2.9,2.22,6.13,3.47,7.87a65.28,65.28,0,0,1-10.83-8m8.29.11c-.2-3.11,2.09-5.53,2.87-6.26.86.61,3.46,2.72,3.66,5.83s-1.89,7-2.73,8.5c-1-1.34-3.6-5-3.81-8.08m19.25,14.87a64.19,64.19,0,0,1-14.89-5.91c.59-1,3.35-5.69,3.1-9.46a8,8,0,0,0-1.86-4.49q1.87,1.35,3.84,2.54l0,0a4.32,4.32,0,0,0-.9,3.56c.48,1.78,2.61,3.51,2.7,3.58a.46.46,0,0,0,.41.09.47.47,0,0,0,.32-.28c0-.11,1-2.67.55-4.44a3.15,3.15,0,0,0-.53-1.1q1.46.78,3,1.47c3.45,2.51,6.92,6,6.88,7.73A1.38,1.38,0,0,1,66.48,181c-.83.14-2-.36-2.73-2.24a.46.46,0,1,0-.86.33c.89,2.4,2.57,3,3.75,2.83a2.33,2.33,0,0,0,2-2.27c0-1.8-2.21-4.22-4.23-6,6.56,3.55,8.8,7.5,8,10-.68,2.22-3.54,3.28-7.28,2.69m4,.89a5.1,5.1,0,0,0,4.21-3.31c.7-2.3-.54-5.85-5.61-9.36a55.67,55.67,0,0,0,10.45,2.17,5.22,5.22,0,0,0-2.6,3.28c-.63,2.44.36,5.46,2.69,8.31a64.89,64.89,0,0,1-9.13-1.09m55.83,1.76a45.39,45.39,0,0,1-13.68,5l4.37-9.79a.46.46,0,0,0-.23-.6.41.41,0,0,0-.2,0,.45.45,0,0,0-.42.28l-4.64,10.37-1.72.26,3-6.63a.47.47,0,0,0-.23-.62.57.57,0,0,0-.18,0,.49.49,0,0,0-.43.27l-3.19,7.14-1.68.15,1.63-3.66a.46.46,0,0,0-.24-.62.43.43,0,0,0-.18,0,.48.48,0,0,0-.43.28l-1.83,4.1q-1.05.05-2.12,0c-.71,0-1.41,0-2.12,0l-1.83-4.1a.47.47,0,0,0-.42-.28.49.49,0,0,0-.19,0,.47.47,0,0,0-.23.62l1.63,3.66-1.68-.15-3.19-7.14a.47.47,0,0,0-.43-.27.6.6,0,0,0-.19,0,.48.48,0,0,0-.24.62l3,6.63-1.72-.26-4.64-10.37a.46.46,0,0,0-.42-.28.41.41,0,0,0-.19,0,.46.46,0,0,0-.24.6L93.76,194a45.47,45.47,0,0,1-13.69-5c-2.93-3-4.3-6.24-3.64-8.74A4.59,4.59,0,0,1,79.79,177a6.23,6.23,0,0,1,2.36,1.19,6,6,0,0,0-.79-.29l-.13,0-.13,0a3.58,3.58,0,0,0-2.76,2.5c-.44,1.69.5,3.85,2.56,5.93a.48.48,0,0,0,.33.14.47.47,0,0,0,.33-.14,7.92,7.92,0,0,0,2.67-5,4.42,4.42,0,0,0-2.1-4.32,40.13,40.13,0,0,0,40.77,0,4.41,4.41,0,0,0-2.1,4.32,8,8,0,0,0,2.67,5,.47.47,0,0,0,.32.14.48.48,0,0,0,.33-.14c2.06-2.08,3-4.24,2.56-5.93a3.57,3.57,0,0,0-2.76-2.5l-.13,0-.13,0a5.62,5.62,0,0,0-.79.29,6.2,6.2,0,0,1,2.36-1.19,4.58,4.58,0,0,1,3.35,3.21c.65,2.5-.71,5.77-3.65,8.74m-41.64-7.6a6.61,6.61,0,0,1-2.07,4c-1.6-1.73-2.32-3.42-2-4.7a2.67,2.67,0,0,1,2-1.81,2.7,2.7,0,0,1,2,1.81,2.41,2.41,0,0,1,.07.62v.1m38.43,0a.09.09,0,0,1,0-.05,2.44,2.44,0,0,1,.08-.62,2,2,0,0,1,4,0c.33,1.28-.39,3-2,4.7a6.73,6.73,0,0,1-2.07-4,.07.07,0,0,0,0,0m5.06,7c2.33-2.85,3.32-5.87,2.69-8.31a5.24,5.24,0,0,0-2.6-3.28,55.71,55.71,0,0,0,10.45-2.17c-5.08,3.51-6.31,7.06-5.61,9.36a5.08,5.08,0,0,0,4.2,3.31,64.75,64.75,0,0,1-9.13,1.09m13.09-2c-3.74.59-6.59-.47-7.28-2.69-.77-2.51,1.47-6.46,8-10-2,1.81-4.25,4.22-4.22,6a2.32,2.32,0,0,0,2,2.27c1.18.2,2.87-.43,3.75-2.83a.46.46,0,1,0-.87-.33c-.69,1.88-1.91,2.38-2.72,2.24a1.39,1.39,0,0,1-1.2-1.36c0-1.76,3.43-5.21,6.88-7.73q1.5-.68,3-1.47a3.32,3.32,0,0,0-.53,1.1,8.72,8.72,0,0,0,.55,4.44.46.46,0,0,0,.31.28.46.46,0,0,0,.41-.09c.09-.07,2.22-1.8,2.7-3.58a4.3,4.3,0,0,0-.89-3.56l0,0q2-1.18,3.84-2.54a8,8,0,0,0-1.86,4.49c-.25,3.76,2.51,8.49,3.1,9.46a64.08,64.08,0,0,1-14.89,5.91M152.59,171c.21-3.11,2.8-5.22,3.66-5.83.78.73,3.08,3.15,2.88,6.26s-2.79,6.74-3.81,8.08c-.83-1.46-2.92-5.44-2.73-8.5m17-2.43a3.38,3.38,0,0,1-1.52-2.18,6.93,6.93,0,0,1,.76-3.37,7.1,7.1,0,0,1,1.64,3,3.34,3.34,0,0,1-.87,2.51m-1.08,1.07a3.3,3.3,0,0,1-2.52.88,7.15,7.15,0,0,1-3-1.63,7,7,0,0,1,3.37-.75,3.41,3.41,0,0,1,2.18,1.51m2.74-2.21a3.45,3.45,0,0,0,.13-1.5c-.26-1.91-2.25-4-2.34-4.07a.46.46,0,0,0-.4-.14.45.45,0,0,0-.34.24,10.18,10.18,0,0,0-1.19,4,4.16,4.16,0,0,0,0,.52,3.34,3.34,0,0,0,.29,1,3.72,3.72,0,0,0-1-.29,4.38,4.38,0,0,0-.53,0,10.22,10.22,0,0,0-4,1.19.48.48,0,0,0-.24.35.5.5,0,0,0,.14.4c.08.08,2.16,2.07,4.07,2.33a3.5,3.5,0,0,0,1.49-.12,64.9,64.9,0,0,1-10.82,8c1.25-1.74,3.28-5,3.47-7.87.28-4.21-3.31-7.14-3.47-7.27l-.09-.05c1.38-1.15,2.73-2.37,4-3.65s2.5-2.62,3.65-4l0,.09c.13.15,3.07,3.74,7.27,3.47,2.9-.19,6.14-2.22,7.87-3.48a64.44,64.44,0,0,1-8.05,10.83m.12-8.29c-3.1.21-5.53-2.09-6.26-2.87.62-.87,2.72-3.46,5.83-3.66s7,1.89,8.5,2.73c-1.33,1-5,3.6-8.08,3.8m14.87-19.25a64.4,64.4,0,0,1-5.9,14.89c-1-.6-5.7-3.35-9.46-3.1a7.9,7.9,0,0,0-4.49,1.87q1.35-1.88,2.54-3.85l0,0a4.28,4.28,0,0,0,3.56.9c1.77-.48,3.5-2.61,3.58-2.7a.47.47,0,0,0,.08-.41.46.46,0,0,0-.28-.31,8.69,8.69,0,0,0-4.45-.55,3.29,3.29,0,0,0-1.09.52c.52-1,1-2,1.47-3,2.51-3.45,6-6.91,7.72-6.88a1.39,1.39,0,0,1,1.36,1.19c.15.83-.36,2-2.23,2.73a.45.45,0,0,0-.28.59.46.46,0,0,0,.6.28c2.41-.9,3-2.57,2.83-3.76a2.32,2.32,0,0,0-2.26-2c-1.8,0-4.22,2.21-6,4.23,3.54-6.56,7.49-8.8,10-8,2.22.68,3.28,3.53,2.69,7.28m-16.4,9.33a3.21,3.21,0,0,1,1.85-1.66,6.75,6.75,0,0,1,3.23.3,6.61,6.61,0,0,1-2.64,1.87,3.18,3.18,0,0,1-2.44-.5m17.3-13.29a5.12,5.12,0,0,0-3.31-4.2c-2.3-.71-5.85.53-9.36,5.61a55.47,55.47,0,0,0,2.17-10.46,5.22,5.22,0,0,0,3.29,2.6c2.44.64,5.45-.36,8.3-2.68a64.81,64.81,0,0,1-1.09,9.13m7.59-31.29-4.1,1.83a.46.46,0,0,0-.27.43.5.5,0,0,0,0,.19.47.47,0,0,0,.61.23l3.65-1.64c0,.56-.09,1.12-.15,1.68l-7.14,3.19a.46.46,0,0,0-.27.42.49.49,0,0,0,0,.19.47.47,0,0,0,.61.24l6.63-3c-.07.57-.16,1.14-.26,1.71l-10.37,4.64a.47.47,0,0,0-.27.43.52.52,0,0,0,0,.19.47.47,0,0,0,.61.23l9.78-4.38a45.28,45.28,0,0,1-5,13.69c-3,2.93-6.24,4.29-8.74,3.64a4.55,4.55,0,0,1-3.21-3.35,6.28,6.28,0,0,1,1.19-2.37,5.52,5.52,0,0,0-.3.8.55.55,0,0,0,0,.13.59.59,0,0,0,0,.13,3.56,3.56,0,0,0,2.51,2.76c1.68.44,3.84-.49,5.93-2.55a.47.47,0,0,0,.14-.34.45.45,0,0,0-.14-.33c-1.71-1.7-3.47-2.63-5-2.66a4.43,4.43,0,0,0-4.32,2.1,40.11,40.11,0,0,0,0-40.77,4.43,4.43,0,0,0,4.32,2.1c1.51,0,3.28-1,5-2.66a.45.45,0,0,0,.14-.33.46.46,0,0,0-.14-.33c-2.08-2.06-4.25-3-5.93-2.56a3.57,3.57,0,0,0-2.51,2.76.59.59,0,0,0,0,.13.54.54,0,0,0,0,.13,5.34,5.34,0,0,0,.3.8A6.13,6.13,0,0,1,177,79.79a4.56,4.56,0,0,1,3.21-3.35c2.5-.66,5.76.71,8.74,3.64a45.25,45.25,0,0,1,5,13.68l-9.78-4.37a.47.47,0,0,0-.61.23.49.49,0,0,0,0,.19.46.46,0,0,0,.27.42l10.37,4.64c.1.57.18,1.14.26,1.72l-6.63-3a.46.46,0,0,0-.61.24.47.47,0,0,0,0,.19.47.47,0,0,0,.27.43l7.14,3.19c.06.56.11,1.11.15,1.67l-3.65-1.63a.46.46,0,0,0-.61.23.51.51,0,0,0,0,.19.47.47,0,0,0,.27.42l4.1,1.83q0,1.06.05,2.12c0,.71,0,1.41-.05,2.12m-15.95,19.16a2.68,2.68,0,0,1,1.8-2,2.35,2.35,0,0,1,.62-.08h.11a6.69,6.69,0,0,1,4,2.06c-1.73,1.6-3.43,2.33-4.71,2a2.72,2.72,0,0,1-1.8-2m0-42.56a2.71,2.71,0,0,1,1.8-2c1.28-.33,3,.4,4.71,2a6.65,6.65,0,0,1-4,2.06h-.11a2.61,2.61,0,0,1-.62-.08,2.7,2.7,0,0,1-1.8-2"/><path class="cls-1" d="M180.55,61.25a2.32,2.32,0,1,0-2.33-2.33,2.32,2.32,0,0,0,2.33,2.33m0-3.72a1.4,1.4,0,1,1-1.4,1.4,1.4,1.4,0,0,1,1.4-1.4"/><path class="cls-1" d="M185.88,87.77c1.07.27,2.41-.29,3.7-1.57a.49.49,0,0,0,0-.66c-1.29-1.27-2.63-1.84-3.7-1.56a2.3,2.3,0,0,0-1.62,1.76.41.41,0,0,0,0,.13.44.44,0,0,0,0,.13,2.3,2.3,0,0,0,1.62,1.76m.23-2.89a3.06,3.06,0,0,1,2.46,1,3,3,0,0,1-2.46,1,1,1,0,0,1,0-2"/><path class="cls-1" d="M180.55,143.76a2.33,2.33,0,1,0,2.32,2.32,2.33,2.33,0,0,0-2.32-2.32m0,3.73a1.4,1.4,0,1,1,1.39-1.41,1.41,1.41,0,0,1-1.39,1.41"/><path class="cls-1" d="M185.88,121c1.07.28,2.41-.29,3.7-1.57a.48.48,0,0,0,0-.66c-1.29-1.27-2.63-1.84-3.7-1.57a2.31,2.31,0,0,0-1.62,1.77.4.4,0,0,0,0,.13.36.36,0,0,0,0,.12,2.32,2.32,0,0,0,1.62,1.77m.23-2.89a3,3,0,0,1,2.46,1,3,3,0,0,1-2.46,1,1,1,0,0,1,0-2"/><path class="cls-1" d="M75.06,156.12a4.28,4.28,0,0,1-3.52-.41,3.84,3.84,0,0,1-2.19-3.82l1.43-.12a2.58,2.58,0,0,0,1.54,2.71,2.61,2.61,0,0,0,2.36.23c.38-.22.58-.46,1-1.3L78,149.33l1.26.7L77,154.1c-.86,1.53-1.29,1.77-1.91,2"/><path class="cls-1" d="M89.23,162.43l-.5-2.19-5-1.39-1.54,1.62L80.66,160l6.69-6.9,1.38.4,2.14,9.38Zm-1.64-7.57-2.72,2.81,3.55,1Z"/><path class="cls-1" d="M104.33,160.15c-.7.57-1.1.6-2.62.54l-3.27-.11-.11,3.07-1.43-.05.29-8.44,5.17.17a2.73,2.73,0,0,1,1.77.43,2.76,2.76,0,0,1,1.13,2.39,2.66,2.66,0,0,1-.92,2m-2.31-3.4-3.45-.12-.08,2.51,3.27.12c1.53.05,2-.13,2.06-1.15s-.53-1.31-1.8-1.36"/><path class="cls-1" d="M116.19,162.5c-2.56.59-5.33-.45-6-3.21l0-.22c-.63-2.79,1.61-4.8,4.13-5.37s5.37.4,6,3.2-1.52,5-4.13,5.59m-1.56-7.36c-1.8.42-3.45,1.79-3,3.82s2.46,2.52,4.23,2.11,3.5-1.79,3-3.82-2.48-2.52-4.27-2.11"/><polygon class="cls-1" points="134.35 154.91 126.69 151.95 129.72 157.46 128.46 158.15 124.39 150.73 125.67 150.03 133.3 153 130.29 147.5 131.54 146.81 135.61 154.22 134.35 154.91"/></svg>