<?xml version="1.0" encoding="utf-8"?>
<!-- Generator: Adobe Illustrator 21.1.0, SVG Export Plug-In . SVG Version: 6.00 Build 0)  -->
<svg version="1.1" id="レイヤー_1" xmlns="http://www.w3.org/2000/svg" xmlns:xlink="http://www.w3.org/1999/xlink" x="0px"
	 y="0px" viewBox="0 0 125.3 149.5" style="enable-background:new 0 0 125.3 149.5;" xml:space="preserve">
<style type="text/css">
	.st0{fill:#FFFFFF;}
</style>
<g>
	<g>
		<g>
			<path class="st0" d="M35.6,137.1c-0.3,0.4-0.3,1.2-0.3,2.2c0,0,0,1.8,0,3c0,1.5,0,3.9,0,3.9c0,1,0.1,1.6,0.4,2.1
				c0.2,0.3,0.8,0.6,2.1,0.8v0.3c-1.1,0-2.1,0-3.3,0c-1.2,0-2.4,0-3.7,0V149c1.3-0.1,2-0.4,2.3-0.9c0.3-0.5,0.3-1,0.3-2l0-3.4
				c0,0-4.3,0-7.9,0l0,3.3c0,1.1,0.1,1.6,0.3,2.1c0.3,0.5,1.1,0.8,2.3,0.9v0.3c-1.2,0-2.5,0-3.6,0c-1.2,0-2,0-3.3,0V149
				c0.9-0.1,1.8-0.3,2.1-0.9c0.3-0.5,0.3-1.1,0.3-2c0,0,0-2.3,0-3.8c0-1.2,0-2.9,0-2.9c0-1.3-0.1-2.1-0.5-2.5c-0.3-0.3-1-0.6-2-0.7
				v-0.3c1.2,0,2.3,0,3.4,0c1.2,0,2.3,0,3.5,0v0.3c-1.2,0.1-2,0.4-2.3,0.9c-0.3,0.4-0.3,1.1-0.3,2l0,2.8h7.9v-2.8
				c0-1.1,0-1.6-0.4-2.1c-0.3-0.4-1.1-0.7-2.2-0.8v-0.3c1.2,0,2.3,0,3.5,0c1.2,0,2.3,0,3.5,0v0.3C36.4,136.4,35.9,136.7,35.6,137.1"
				/>
			<path class="st0" d="M44.8,149.3c-1.2,0-2.2,0-3.3,0V149c1-0.1,1.8-0.5,1.9-0.7c0.4-0.4,0.5-1,0.5-2.1c0,0,0-2.4,0-3.8
				c0-1.3,0-3.3,0-3.3c0-1.1,0-1.9-0.5-2.3c-0.4-0.3-1-0.5-2-0.7v-0.3c1.2,0,2.3,0,3.5,0c1.1,0,2.2,0,3.3,0v0.3
				c-1.1,0.1-1.8,0.5-2,0.7c-0.4,0.4-0.4,1-0.4,2.2c0,0,0,2,0,3.2c0,1.4,0,3.7,0,3.7c0,1.2,0.1,1.9,0.5,2.2c0.2,0.2,1,0.6,2.1,0.7
				v0.3C47.1,149.3,45.9,149.3,44.8,149.3"/>
			<path class="st0" d="M61.1,148.7c-1.2,0.7-2.4,0.7-3.8,0.7c-0.9,0-2.4,0-2.6,0h-3.3V149c1.1-0.2,1.7-0.3,2.1-0.7
				c0.4-0.4,0.5-1.4,0.5-2.2c0,0,0-2.1,0-3.6c0-1.4,0-3.5,0-3.5c0-1-0.1-1.6-0.3-2c-0.3-0.4-0.9-0.6-1.9-0.7V136
				c0,0,3.5-0.1,4.2-0.1c2,0,3.4,0.2,4.5,0.7c1,0.5,1.5,1.3,1.5,2.4c0,0.8-0.3,1.4-0.8,1.9c-0.5,0.5-1.4,1-2.5,1.3v0.1
				c2.8,0.6,4.2,1.8,4.2,3.7C62.7,147.1,62.2,148,61.1,148.7 M59.8,143.9c-0.7-0.8-1.9-1.2-3.3-1.2h-0.6v3.4c0,0.8-0.1,2,0.5,2.5
				c0.3,0.2,0.6,0.4,1.4,0.4c1.8,0,2.9-1.2,2.9-2.7C60.7,145.3,60.3,144.5,59.8,143.9 M59.3,137.5c-0.7-0.8-1.9-1.2-3.5-1.3l0,6
				c2.8-0.1,4.2-1.1,4.2-2.9C60,138.6,59.7,138,59.3,137.5"/>
			<path class="st0" d="M68.9,149.3c-1.2,0-2.2,0-3.3,0V149c1-0.1,1.8-0.5,1.9-0.7c0.4-0.4,0.5-1,0.5-2.1c0,0,0-2.4,0-3.8
				c0-1.3,0-3.3,0-3.3c0-1.1,0-1.9-0.5-2.3c-0.4-0.3-1-0.5-2-0.7v-0.3c1.2,0,2.3,0,3.4,0c1.1,0,2.2,0,3.3,0v0.3
				c-1.1,0.1-1.8,0.5-2,0.7c-0.4,0.4-0.4,1-0.4,2.2c0,0,0,2,0,3.2c0,1.4,0,3.7,0,3.7c0,1.2,0.1,1.9,0.5,2.2c0.3,0.2,1,0.6,2.1,0.7
				v0.3C71.2,149.3,70.1,149.3,68.9,149.3"/>
			<path class="st0" d="M78.6,149.3c-1.2,0-2.4,0-3.5,0V149c0.9-0.2,1.6-0.3,2-0.7c0.5-0.5,0.5-1.3,0.5-2.6c0,0,0-2,0-3.3
				c0-1.1,0-2.9,0-2.9c0-1.4,0-2.2-0.5-2.7c-0.3-0.3-1-0.6-1.7-0.7v-0.3c1,0,2.1,0,3.1,0c1,0,2,0,3,0v0.3c-1,0.2-1.4,0.4-1.7,0.7
				c-0.4,0.5-0.4,1.3-0.4,2.6c0,0,0,1.8,0,2.9c0,1.3,0,3.2,0,3.2c0,1.4,0,2.2,0.6,2.7c0.4,0.3,1,0.5,2,0.6v0.3
				C80.8,149.3,79.7,149.3,78.6,149.3 M89.5,149.5c-1.4-0.1-2.6-0.3-3.4-0.5c-0.9-0.3-1.6-1-2.2-1.6l-4.3-4.7v-0.1
				c0,0,1.3-1.3,2.4-2.5c1-1.1,2.3-2.4,2.3-3.1c0-0.4-0.3-0.8-1.1-0.9v-0.3c0.9,0,1.7,0,2.6,0c0.8,0,1.7,0,2.6,0v0.3
				c-1.1,0.2-1.6,0.4-2,0.7c-1,0.6-2.2,1.8-3.1,2.9l-1.9,2c0,0,2.4,2.6,3.8,4.2c0.6,0.7,1.8,1.8,2.5,2.3c0.8,0.5,1.3,0.8,2,1
				L89.5,149.5z"/>
			<path class="st0" d="M100.6,149.3c-0.9,0-2,0-2.9,0V149c1.1-0.2,1.5-0.6,1.5-1c0.1-0.3-0.1-0.9-0.2-1.4l-1.1-2.9h-4.5l-0.6,1.9
				c-0.5,1.5-0.6,1.7-0.6,2.2c0,0.6,0.6,1.1,2.3,1.2v0.3c-1,0-1.9,0-2.8,0c-0.9,0-1.8,0-2.6,0V149c0.8-0.2,1.3-0.4,1.7-0.8
				c0.5-0.5,1.5-3.5,2.5-5.8c0.9-2.2,2.1-5.7,2.1-5.7l-0.1-0.4c0.5-0.2,0.9-0.5,1.4-1.1h0.1c0,0,1.5,4,2.4,6.5
				c0.7,2,1.8,4.8,1.8,4.8c0.4,1,0.7,1.6,1,2c0.2,0.2,0.8,0.6,1.6,0.7v0.3C102.6,149.3,101.6,149.3,100.6,149.3 M95.7,137.6
				L95.7,137.6l-1.9,5.2c0,0,2,0,3.8,0C96.7,140.6,95.7,137.6,95.7,137.6"/>
			<path class="st0" d="M35.9,46.4c-0.6,1-1.3,1.8-2.3,2.2l-0.4-0.8c0.9-0.5,1.4-0.9,2-1.8c0.5-0.9,0.7-1.5,0.1-1.9
				c-0.1-0.1-0.2-0.1-0.4-0.1c-0.3,0-0.6,0.4-1,1.1c-0.8,1.3-0.9,1.5-1.2,1.7c-0.4,0.3-1,0.3-1.4,0c-1.1-0.6-0.8-1.9-0.2-2.8
				c0.5-0.8,1.1-1.4,1.9-1.9l0.5,0.8c-0.8,0.4-1.2,0.8-1.6,1.6c-0.4,0.7-0.5,1.3-0.1,1.5c0.1,0.1,0.2,0.1,0.3,0.1
				c0.3,0,0.5-0.3,1-1.1c0.7-1.2,1.5-2.3,2.6-1.5C36.9,44.1,36.5,45.3,35.9,46.4"/>
			<path class="st0" d="M41.6,39.1l-1.3-0.4L38.1,41l0.4,1.3L37.8,43l-1.8-5.6l0.6-0.6l5.7,1.6L41.6,39.1z M37.1,37.7l0.7,2.3
				l1.6-1.6L37.1,37.7z"/>
			
				<rect x="42.7" y="32" transform="matrix(0.8187 -0.5742 0.5742 0.8187 -12.0464 31.0724)" class="st0" width="0.9" height="5.2"/>
			<path class="st0" d="M50.2,33.8c-1,0.5-2.1,0.7-3.2,0.5l0.1-0.9c1,0.1,1.7,0.1,2.6-0.3c0.9-0.4,1.5-0.8,1.2-1.4
				c-0.1-0.1-0.1-0.2-0.2-0.3c-0.3-0.2-0.7,0-1.4,0.3c-1.4,0.6-1.6,0.7-2,0.6c-0.5,0-0.9-0.4-1.2-0.8c-0.5-1.1,0.5-2,1.5-2.4
				c0.9-0.4,1.7-0.5,2.7-0.4l-0.1,0.9c-0.9-0.1-1.5,0-2.2,0.3c-0.8,0.3-1.2,0.7-1,1.2c0,0.1,0.1,0.2,0.2,0.3
				c0.2,0.1,0.6,0.1,1.5-0.3c1.3-0.6,2.5-1,3.1,0.3C52.3,32.5,51.3,33.3,50.2,33.8"/>
			<path class="st0" d="M57.6,31.7c-1.6,0.3-3.2-0.5-3.5-2.2l0-0.1c-0.3-1.7,1.2-2.9,2.7-3.1c1.6-0.3,3.3,0.5,3.5,2.2
				C60.7,30.2,59.2,31.4,57.6,31.7 M57,27.1c-1.1,0.2-2.2,1-2,2.2c0.2,1.2,1.4,1.6,2.5,1.5c1.1-0.2,2.2-1,2-2.2
				C59.3,27.3,58.1,26.9,57,27.1"/>
			<polygon class="st0" points="67.9,31.5 65.1,27.3 64.7,31.1 63.8,31 64.4,25.9 65.3,26 68.1,30.2 68.5,26.3 69.4,26.4 68.8,31.6 
							"/>
			<path class="st0" d="M74.1,33.4c-1-0.4-2-1-2.6-1.9l0.7-0.6c0.6,0.8,1.1,1.3,2.1,1.6c0.9,0.4,1.6,0.5,1.9-0.2
				c0-0.1,0.1-0.3,0.1-0.4c-0.1-0.3-0.5-0.5-1.2-0.8c-1.4-0.6-1.6-0.7-1.8-0.9c-0.4-0.4-0.4-0.9-0.2-1.4c0.4-1.2,1.8-1.1,2.7-0.7
				c0.9,0.3,1.6,0.8,2.2,1.6l-0.7,0.6c-0.5-0.7-1-1-1.8-1.4c-0.8-0.3-1.4-0.3-1.5,0.2c0,0.1-0.1,0.2,0,0.4c0.1,0.2,0.3,0.4,1.3,0.8
				c1.3,0.5,2.5,1.1,2,2.4C76.6,34,75.3,33.9,74.1,33.4"/>
			<path class="st0" d="M84.6,40l-2.1-1.9l3.5-3.8l2.1,2c1.2,1.2,1.1,2.6,0.2,3.7C87.2,41.1,85.8,41.1,84.6,40 M87.5,36.9l-1.4-1.3
				L83.8,38l1.4,1.3c0.8,0.7,1.7,0.7,2.5,0C88.4,38.5,88.3,37.6,87.5,36.9"/>
			<path class="st0" d="M91.3,47.6c-0.8,0-1.5-0.7-1.9-1.4c-0.4-0.6-0.6-1.3-0.5-2c0.1-0.7,0.6-1,1.2-1.4l2.5-1.5L93,42l-2.5,1.5
				c-0.6,0.4-0.7,0.5-0.8,0.7c-0.1,0.5,0.1,1.1,0.4,1.5c0.3,0.4,0.7,0.9,1.2,0.9c0.2,0,0.4,0,0.9-0.4l2.5-1.5l0.5,0.7l-2.5,1.5
				C92,47.5,91.7,47.6,91.3,47.6"/>
			<path class="st0" d="M65.6,75.9c-0.5-0.3-1.1-0.4-1.6-0.5c1.3,1.4,1.6,3.5,0.7,5.4c-1,1.8-2.9,2.9-4.9,2.7
				c-1.3-1.4-1.6-3.5-0.7-5.4c0.2-0.4,0.5-0.8,0.8-1.2l0,0l0.4-0.3l4.1-3.8l5.6-5.3l6.8,2.6l0,0c1.2,0.5,2.5,0.5,3.8,0
				c1.9-0.9,3.1-2.8,3-4.7h0c0-1-0.3-2.1-0.7-3.2c-0.4-1-0.9-1.8-1.5-2.5c0,0,0,0,0,0c-0.1-0.1-0.1-0.2-0.2-0.3h0
				c-1.3-1.4-3.5-1.9-5.4-1.1c-0.5,0.2-1,0.6-1.4,0.9l-6,5.6l-0.3,0.3l-9.9-3.8l3.7-3.5l6-5.6c0.4-0.4,0.8-0.8,1-1.3
				c1-1.9,0.6-4.1-0.7-5.5v0c-0.1-0.1-0.2-0.2-0.3-0.2c0,0,0,0,0,0c-0.6-0.6-1.4-1.2-2.4-1.6c-1.1-0.5-2.1-0.8-3.2-0.9l0,0
				c-1.9-0.2-3.9,0.8-4.9,2.7c-1.2,2.4-0.3,5.2,2,6.4c0.5,0.3,1.1,0.4,1.6,0.5c-1.3-1.4-1.6-3.5-0.7-5.4c1-1.8,2.9-2.9,4.8-2.7
				c1.3,1.4,1.6,3.5,0.7,5.4c-0.2,0.4-0.5,0.8-0.8,1.2h0l-0.4,0.3l-4.1,3.8l-5.6,5.3l-6.8-2.6l0,0c-1.2-0.5-2.5-0.5-3.8,0
				c-1.9,0.9-3.1,2.8-3,4.7l0,0c0.1,1,0.3,2.1,0.7,3.2c0.4,1.1,1,2,1.7,2.8l0,0c1.3,1.4,3.5,1.9,5.4,1.1c0.5-0.2,1-0.6,1.4-0.9
				l6-5.6l0.3-0.3l9.9,3.8l-3.7,3.5l-6,5.6c-0.4,0.4-0.8,0.8-1,1.3c-1,1.9-0.6,4.1,0.7,5.5l0,0c0.7,0.7,1.6,1.4,2.6,1.9
				c1.1,0.5,2.1,0.8,3.2,0.9h0c2,0.2,3.9-0.8,4.9-2.7C68.9,79.9,68,77,65.6,75.9 M53.7,61.3l-4.1,3.8l-0.4,0.3h0
				c-0.4,0.3-0.8,0.6-1.2,0.8c-1.9,0.8-4,0.4-5.3-1c-0.2-3.4,4.1-6.8,8-5.3l3.1,1.2L53.7,61.3z M71.4,66.3l4.1-3.8l0.4-0.3v0
				c0.4-0.3,0.8-0.6,1.2-0.8c1.9-0.8,4-0.4,5.3,1c0.3,3.4-4.1,6.8-8,5.3l-3.1-1.2L71.4,66.3z"/>
			<path class="st0" d="M36,16.4c0.8,0,1.4-0.6,1.4-1.4c0-0.8-0.6-1.4-1.4-1.4c-0.8,0-1.4,0.6-1.4,1.4C34.6,15.7,35.2,16.4,36,16.4
				 M36,14.1c0.5,0,0.9,0.4,0.9,0.9c0,0.5-0.4,0.9-0.9,0.9c-0.5,0-0.9-0.4-0.9-0.9C35.2,14.5,35.5,14.1,36,14.1"/>
			<path class="st0" d="M52.4,12.7C52.4,12.7,52.5,12.7,52.4,12.7c0.1,0,0.1,0,0.2,0c0.7-0.2,1-0.7,1.1-1c0.2-0.6-0.2-1.5-1-2.3
				c-0.1-0.1-0.3-0.1-0.4,0c-0.8,0.8-1.1,1.6-1,2.3C51.4,12,51.7,12.5,52.4,12.7 M52.5,10.1c0.5,0.6,0.7,1.1,0.6,1.5
				c-0.1,0.3-0.3,0.4-0.6,0.6c-0.3-0.1-0.5-0.3-0.6-0.6C51.8,11.2,52,10.6,52.5,10.1"/>
			<path class="st0" d="M89.3,16.4c0.8,0,1.4-0.6,1.4-1.4c0-0.8-0.6-1.4-1.4-1.4c-0.8,0-1.4,0.6-1.4,1.4
				C87.9,15.7,88.5,16.4,89.3,16.4 M89.3,14.1c0.5,0,0.9,0.4,0.9,0.9c0,0.5-0.4,0.9-0.9,0.9c-0.5,0-0.9-0.4-0.9-0.9
				C88.4,14.5,88.8,14.1,89.3,14.1"/>
			<path class="st0" d="M72.7,12.7C72.8,12.7,72.8,12.7,72.7,12.7c0.1,0,0.1,0,0.2,0c0.7-0.2,1-0.7,1.1-1c0.2-0.6-0.2-1.5-1-2.3
				c-0.1-0.1-0.3-0.1-0.4,0c-0.8,0.8-1.1,1.6-1,2.3C71.7,12,72,12.5,72.7,12.7 M72.8,10.1c0.5,0.6,0.7,1.1,0.6,1.5
				c-0.1,0.3-0.3,0.4-0.6,0.6c-0.3-0.1-0.5-0.3-0.6-0.6C72.1,11.2,72.3,10.6,72.8,10.1"/>
			<path class="st0" d="M15,87.9c-0.8,0-1.4,0.6-1.4,1.4c0,0.8,0.6,1.4,1.4,1.4c0.8,0,1.4-0.6,1.4-1.4C16.4,88.5,15.7,87.9,15,87.9
				 M15,90.1c-0.5,0-0.9-0.4-0.9-0.9c0-0.5,0.4-0.9,0.9-0.9c0.5,0,0.9,0.4,0.9,0.9C15.8,89.7,15.4,90.1,15,90.1"/>
			<path class="st0" d="M11.7,74c0.3-0.1,0.8-0.3,1-1.1c0,0,0-0.1,0-0.1c0,0,0-0.1,0-0.1c-0.2-0.7-0.7-1-1-1.1
				c-0.7-0.2-1.5,0.2-2.3,1c-0.1,0.1-0.1,0.3,0,0.4C10.2,73.8,11,74.1,11.7,74 M10.1,72.8c0.6-0.5,1.1-0.7,1.5-0.6
				c0.3,0.1,0.4,0.3,0.6,0.6c-0.1,0.3-0.3,0.5-0.6,0.6C11.2,73.5,10.6,73.3,10.1,72.8"/>
			<path class="st0" d="M15,37.4c0.8,0,1.4-0.6,1.4-1.4c0-0.8-0.6-1.4-1.4-1.4c-0.8,0-1.4,0.6-1.4,1.4C13.5,36.8,14.2,37.4,15,37.4
				 M15,35.2c0.5,0,0.9,0.4,0.9,0.9c0,0.5-0.4,0.9-0.9,0.9c-0.5,0-0.9-0.4-0.9-0.9C14.1,35.5,14.5,35.2,15,35.2"/>
			<path class="st0" d="M11.7,51.3c-0.6-0.2-1.5,0.2-2.3,1c-0.1,0.1-0.1,0.3,0,0.4c0.8,0.8,1.6,1.1,2.3,1c0.3-0.1,0.8-0.3,1-1.1
				c0,0,0-0.1,0-0.1c0,0,0-0.1,0-0.1C12.5,51.7,12,51.4,11.7,51.3 M11.6,53.1c-0.4,0.1-0.9-0.1-1.5-0.6c0.6-0.5,1.1-0.7,1.5-0.6
				c0.3,0.1,0.4,0.3,0.6,0.6C12,52.8,11.8,53,11.6,53.1"/>
			<path class="st0" d="M89.3,108.9c-0.8,0-1.4,0.6-1.4,1.4c0,0.8,0.6,1.4,1.4,1.4c0.8,0,1.4-0.6,1.4-1.4
				C90.7,109.6,90.1,108.9,89.3,108.9 M89.3,111.2c-0.5,0-0.9-0.4-0.9-0.8c0-0.5,0.4-0.9,0.9-0.9c0.5,0,0.9,0.4,0.9,0.9
				C90.1,110.8,89.7,111.2,89.3,111.2"/>
			<path class="st0" d="M72.9,112.6C72.9,112.6,72.8,112.6,72.9,112.6c-0.1,0-0.1,0-0.2,0c-0.7,0.2-1,0.7-1.1,1
				c-0.2,0.6,0.2,1.5,1,2.3c0.1,0.1,0.3,0.1,0.4,0c0.8-0.8,1.1-1.6,1-2.3C73.9,113.3,73.6,112.8,72.9,112.6 M72.8,115.2
				c-0.5-0.6-0.7-1.1-0.6-1.5c0.1-0.3,0.3-0.4,0.6-0.6c0.3,0.1,0.5,0.3,0.6,0.6C73.5,114.1,73.3,114.7,72.8,115.2"/>
			<path class="st0" d="M117.6,47.6c-0.4-10.6-4.7-20.3-12.1-27.7h0c0,0,0,0,0,0c0,0,0,0,0,0l0,0C98,12.4,88.3,8.1,77.7,7.7
				C73.2,5,68,3.5,62.6,3.5c-5.3,0-10.5,1.4-15.1,4.1C37,8.1,27.3,12.4,19.8,19.8c0,0,0,0,0,0c0,0,0,0,0,0c0,0,0,0,0,0l0,0
				C12.4,27.3,8.1,37,7.7,47.6C5,52.1,3.5,57.3,3.5,62.6C3.5,68,5,73.2,7.7,77.7c0.4,10.6,4.7,20.3,12.1,27.7v0c0,0,0,0,0,0
				c0,0,0,0,0,0c0,0,0,0,0,0c7.4,7.4,17.2,11.7,27.7,12.1c4.5,2.7,9.8,4.1,15.1,4.1c5.3,0,10.5-1.4,15.1-4.1
				c10.6-0.4,20.3-4.7,27.7-12.1l0,0c0,0,0,0,0,0c0,0,0,0,0,0l0,0c7.4-7.4,11.7-17.2,12.1-27.7c2.7-4.5,4.1-9.8,4.1-15.1
				C121.7,57.3,120.3,52.1,117.6,47.6 M116.9,77.4c0,0.1-0.1,0.1-0.1,0.2c-0.4,10.3-4.6,20-11.9,27.3c-7.3,7.3-17,11.5-27.3,11.9
				c-0.1,0-0.1,0-0.2,0c-4.4,2.7-9.6,4.1-14.8,4.1c-5.2,0-10.3-1.4-14.8-4.1c-0.1,0-0.1,0-0.2,0c-10.3-0.4-20-4.6-27.3-11.9
				c-7.3-7.3-11.5-17-11.9-27.3c0-0.1,0-0.1-0.1-0.2C5.7,73,4.3,67.9,4.3,62.6c0-5.2,1.4-10.3,4.1-14.8c0-0.1,0.1-0.1,0.1-0.2
				c0.4-10.3,4.6-20,11.9-27.3c7.3-7.3,17-11.5,27.3-11.9c0.1,0,0.1,0,0.2-0.1c4.4-2.7,9.6-4.1,14.8-4.1c5.2,0,10.3,1.4,14.8,4.1
				c0.1,0,0.1,0.1,0.2,0.1c10.3,0.4,20,4.6,27.3,11.9c7.3,7.3,11.5,17,11.9,27.3c0,0.1,0,0.1,0.1,0.2c2.7,4.4,4.1,9.6,4.1,14.8
				C121,67.9,119.6,73,116.9,77.4"/>
			<path class="st0" d="M120.9,46.7c-0.5-11.1-5-21.5-12.9-29.4l0,0c0,0,0,0,0,0c0,0,0,0,0,0l0,0C100.1,9.4,89.7,4.8,78.6,4.4
				C73.8,1.5,68.3,0,62.6,0c-5.6,0-11.2,1.5-16,4.4c-11.1,0.5-21.5,5-29.4,12.9l0,0c0,0,0,0,0,0c0,0,0,0,0,0l0,0
				C9.4,25.1,4.8,35.6,4.4,46.7C1.5,51.5,0,57,0,62.6c0,5.6,1.5,11.2,4.4,16c0.5,11.1,5,21.5,12.9,29.4l0,0c0,0,0,0,0,0c0,0,0,0,0,0
				l0,0c7.9,7.8,18.3,12.4,29.4,12.9c4.8,2.9,10.3,4.4,16,4.4c5.6,0,11.2-1.5,16-4.4c11.1-0.5,21.5-5,29.4-12.9l0,0c0,0,0,0,0,0
				c0,0,0,0,0,0l0,0c7.8-7.9,12.4-18.3,12.9-29.4c2.9-4.8,4.4-10.4,4.4-16C125.3,57,123.8,51.5,120.9,46.7 M120,78.3
				c0,0.1-0.1,0.1-0.1,0.2c-0.4,10.9-4.9,21.2-12.6,28.9c-7.7,7.7-18,12.2-28.9,12.6c-0.1,0-0.2,0-0.2,0.1
				c-4.7,2.8-10.1,4.3-15.6,4.3c-5.5,0-10.9-1.5-15.6-4.3c-0.1,0-0.1-0.1-0.2-0.1c-10.9-0.4-21.2-4.9-28.9-12.6
				c-7.7-7.7-12.2-18-12.6-28.9c0-0.1,0-0.2-0.1-0.2c-2.8-4.7-4.3-10.1-4.3-15.6c0-5.5,1.5-10.9,4.3-15.6c0-0.1,0.1-0.1,0.1-0.2
				c0.4-10.9,4.9-21.1,12.6-28.9c7.7-7.7,18-12.2,28.9-12.6c0.1,0,0.2,0,0.2-0.1c4.7-2.8,10.1-4.3,15.6-4.3c5.5,0,10.9,1.5,15.6,4.3
				c0.1,0,0.1,0.1,0.2,0.1c10.9,0.4,21.1,4.9,28.9,12.6c7.7,7.7,12.2,18,12.6,28.9c0,0.1,0,0.2,0.1,0.2c2.8,4.7,4.3,10.1,4.3,15.6
				C124.3,68.2,122.9,73.6,120,78.3"/>
			<path class="st0" d="M36,108.9c-0.8,0-1.4,0.6-1.4,1.4c0,0.8,0.6,1.4,1.4,1.4c0.8,0,1.4-0.6,1.4-1.4
				C37.4,109.6,36.8,108.9,36,108.9 M36,111.2c-0.5,0-0.9-0.4-0.9-0.8c0-0.5,0.4-0.9,0.9-0.9c0.5,0,0.9,0.4,0.9,0.9
				C36.9,110.8,36.5,111.2,36,111.2"/>
			<path class="st0" d="M52.6,112.6C52.5,112.6,52.5,112.6,52.6,112.6c-0.1,0-0.1,0-0.2,0c-0.7,0.2-1,0.7-1.1,1
				c-0.2,0.6,0.2,1.5,1,2.3c0.1,0.1,0.3,0.1,0.4,0c0.8-0.8,1.1-1.6,1-2.3C53.6,113.3,53.3,112.8,52.6,112.6 M52.5,115.2
				c-0.5-0.6-0.7-1.1-0.6-1.5c0.1-0.3,0.3-0.4,0.6-0.6c0.3,0.1,0.5,0.3,0.6,0.6C53.2,114.1,53,114.7,52.5,115.2"/>
			<path class="st0" d="M119.5,59.5C119.5,59.5,119.5,59.5,119.5,59.5c-0.5-4-1.8-8.1-3.8-11.4c-0.3-8.8-3.9-19-11.7-26.7
				C96.2,13.5,86,9.9,77.2,9.6c-3.3-2-7.3-3.4-11.3-3.8c0,0,0,0,0,0c-1-0.1-2.1-0.2-3.2-0.2c-1.1,0-2.1,0.1-3.2,0.2c0,0,0,0,0,0
				c-4,0.5-8,1.8-11.3,3.8c-8.8,0.3-19,3.9-26.7,11.7C13.5,29.1,9.9,39.3,9.6,48.1c-2,3.3-3.4,7.3-3.8,11.3c0,0,0,0,0,0
				c-0.1,1-0.2,2.1-0.2,3.2c0,1.1,0.1,2.1,0.2,3.2c0,0,0,0,0,0c0.5,4,1.8,8,3.8,11.3c0.3,8.8,3.9,19,11.7,26.7
				c7.8,7.8,17.9,11.4,26.7,11.7c3.3,2,7.3,3.4,11.3,3.8c0,0,0,0,0,0c1,0.1,2.1,0.2,3.2,0.2c1.1,0,2.1-0.1,3.2-0.2c0,0,0,0,0,0
				c4-0.5,8-1.8,11.3-3.8c8.8-0.3,19-3.9,26.7-11.7c7.8-7.8,11.4-17.9,11.7-26.7c2-3.3,3.4-7.3,3.8-11.3c0,0,0,0,0,0
				c0.1-1,0.2-2.1,0.2-3.2C119.6,61.6,119.6,60.5,119.5,59.5 M115.1,47.8c-1.7-1.4-3.6-2-5.1-1.6c-0.9,0.2-1.6,0.8-2,1.6
				c-0.2-2.2-0.7-4.3-1.3-6.4c2.1,3.1,4.3,3.9,5.7,3.4c1-0.3,1.8-1.3,2-2.6C114.7,44.1,115,45.9,115.1,47.8 M75,107.6
				c0,0-0.1,0-0.1,0c-3.7,2.2-7.9,3.4-12.3,3.4s-8.6-1.2-12.3-3.4c0,0-0.1,0-0.1,0c-8.5-0.3-16.6-3.9-22.7-9.9
				C21.5,91.6,18,83.6,17.7,75c0,0,0-0.1,0-0.1c-2.2-3.7-3.4-7.9-3.4-12.3c0-4.3,1.2-8.6,3.4-12.3c0,0,0-0.1,0-0.1
				c0.3-8.6,3.9-16.6,9.9-22.7c6.1-6.1,14.1-9.6,22.7-9.9c0.1,0,0.1,0,0.1,0c3.7-2.2,7.9-3.4,12.3-3.4s8.6,1.2,12.3,3.4
				c0,0,0.1,0,0.1,0c8.6,0.3,16.6,3.8,22.7,9.9c6.1,6.1,9.6,14.1,9.9,22.7c0,0,0,0.1,0,0.1c2.2,3.7,3.4,7.9,3.4,12.3
				c0,4.3-1.2,8.6-3.4,12.3c0,0,0,0.1,0,0.1c-0.3,8.5-3.9,16.6-9.9,22.7C91.6,103.7,83.6,107.3,75,107.6 M91.2,103.8
				c0.2,0.3,0.5,0.9,0.3,1.5c-0.2,0.6-0.8,1.3-1.1,1.6c-0.1-0.5-0.4-1.4-0.2-2C90.3,104.3,90.9,104,91.2,103.8 M35.1,105
				c0.2,0.6,0,1.5-0.2,2c-0.4-0.4-1-1-1.1-1.6c-0.2-0.6,0.1-1.2,0.3-1.5C34.4,104,35,104.3,35.1,105 M34.1,21.5
				c-0.2-0.3-0.5-0.9-0.3-1.5c0.2-0.6,0.8-1.3,1.1-1.6c0.2,0.5,0.4,1.4,0.2,2C35,20.9,34.4,21.3,34.1,21.5 M90.2,20.3
				c-0.2-0.6,0-1.5,0.2-2c0.4,0.4,1,1,1.1,1.6c0.2,0.6-0.1,1.2-0.3,1.5C90.9,21.3,90.3,20.9,90.2,20.3 M113.8,39.8
				c0.4,2.3-0.3,4-1.6,4.4c-1.5,0.5-3.9-0.9-6.1-4.9c1.1,1.2,2.6,2.6,3.7,2.6c0.7,0,1.3-0.5,1.4-1.2c0.1-0.7-0.3-1.7-1.7-2.3
				c-0.1-0.1-0.3,0-0.4,0.2c-0.1,0.2,0,0.3,0.2,0.4c1.1,0.4,1.5,1.2,1.4,1.7c-0.1,0.4-0.4,0.7-0.8,0.7c-1.1,0-3.2-2.1-4.7-4.2
				c-0.3-0.6-0.6-1.2-0.9-1.8c0.2,0.1,0.4,0.3,0.7,0.3c1.1,0.3,2.7-0.3,2.7-0.3c0.1,0,0.1-0.1,0.2-0.2c0-0.1,0-0.2-0.1-0.2
				c0-0.1-1.1-1.4-2.2-1.7c-1.1-0.3-2.1,0.5-2.2,0.5c0,0,0,0,0,0c-0.5-0.8-1-1.6-1.6-2.3c0.7,0.6,1.6,1.1,2.7,1.1
				c2.3,0.2,5.2-1.5,5.8-1.9C111.8,33.6,113,36.6,113.8,39.8 M103.8,34.1c0.3-0.2,0.9-0.5,1.5-0.3c0.6,0.2,1.3,0.8,1.6,1.1
				c-0.5,0.2-1.4,0.4-2,0.2C104.3,35,104,34.4,103.8,34.1 M104.5,32c-1.9-0.1-3.2-1.7-3.6-2.2c0.4-0.5,1.9-1.9,3.8-1.8
				c1.9,0.1,4.1,1.7,4.9,2.3C108.8,30.9,106.4,32.2,104.5,32 M104.2,23.8c-0.1,0.7-0.7,1.4-1,1.9c-0.2-0.5-0.6-1.4-0.5-2.1
				c0.1-0.7,0.6-1.1,0.9-1.3C103.9,22.5,104.3,23.1,104.2,23.8 M101.7,22.6c-0.7,0.1-1.6-0.2-2.1-0.5c0.4-0.3,1.2-0.9,1.9-1
				c0.7-0.1,1.3,0.3,1.5,0.5C102.8,21.9,102.4,22.5,101.7,22.6 M102.3,20.6c-0.3-0.1-0.6-0.1-0.9-0.1c-1.2,0.2-2.4,1.4-2.5,1.4
				c-0.1,0.1-0.1,0.2-0.1,0.2c0,0.1,0.1,0.2,0.1,0.2c0.1,0,1.4,0.7,2.5,0.7c0.1,0,0.2,0,0.3,0c0.2,0,0.4-0.1,0.6-0.2
				c-0.1,0.2-0.1,0.4-0.2,0.6c0,0.1,0,0.2,0,0.3c0,1.1,0.7,2.4,0.7,2.5c0,0.1,0.1,0.1,0.2,0.1c0.1,0,0.2,0,0.2-0.1
				c0.1-0.1,1.3-1.3,1.4-2.5c0-0.3,0-0.6-0.1-0.9c1.9,2,3.5,4.3,4.9,6.6c-1.1-0.8-3-2-4.8-2.1c-2.6-0.2-4.4,2-4.4,2.1c0,0,0,0,0,0.1
				c-0.7-0.8-1.4-1.7-2.2-2.4c-0.8-0.8-1.6-1.5-2.4-2.2c0,0,0,0,0.1,0c0.1-0.1,2.3-1.9,2.1-4.4c-0.1-1.8-1.4-3.7-2.1-4.8
				C98,17.1,100.3,18.7,102.3,20.6 M97.3,20.5c0.1,1.9-1.3,3.4-1.8,3.8c-0.5-0.4-2.1-1.7-2.2-3.6c-0.1-1.9,1.2-4.3,1.7-5.2
				C95.5,16.4,97.1,18.7,97.3,20.5 M85.5,11.4c3.2,0.8,6.2,2,9.1,3.6c-0.4,0.6-2,3.5-1.9,5.8c0.1,1.1,0.6,2.1,1.1,2.7
				c-0.8-0.5-1.5-1.1-2.3-1.5c0,0,0,0,0,0c0,0,0.9-1,0.5-2.2c-0.3-1.1-1.6-2.1-1.6-2.2c-0.1-0.1-0.2-0.1-0.2-0.1
				c-0.1,0-0.2,0.1-0.2,0.2c0,0.1-0.6,1.6-0.3,2.7c0.1,0.3,0.2,0.5,0.3,0.7c-0.6-0.3-1.2-0.6-1.8-0.9c-2.1-1.5-4.2-3.6-4.2-4.7
				c0-0.4,0.3-0.8,0.7-0.8c0.5-0.1,1.2,0.2,1.7,1.4c0,0.1,0.2,0.2,0.4,0.2c0.1-0.1,0.2-0.2,0.2-0.4c-0.5-1.5-1.6-1.9-2.3-1.7
				c-0.7,0.1-1.2,0.7-1.2,1.4c0,1.1,1.4,2.6,2.6,3.7c-4-2.2-5.4-4.6-4.9-6.1C81.5,11.7,83.2,11.1,85.5,11.4 M83.1,10.9
				c-1.3,0.3-2.2,1-2.6,2c-0.4,1.4,0.3,3.6,3.4,5.7c-2.1-0.6-4.2-1.1-6.4-1.3c0.8-0.5,1.4-1.1,1.6-2c0.4-1.5-0.2-3.3-1.6-5.1
				C79.4,10.3,81.2,10.5,83.1,10.9 M48.9,9.8c2.6-1.5,5.4-2.5,8.4-3.1l-2.7,6c-0.1,0.1,0,0.3,0.1,0.4c0,0,0.1,0,0.1,0
				c0.1,0,0.2-0.1,0.3-0.2L58,6.6c0.4-0.1,0.7-0.1,1-0.2l-1.8,4.1c-0.1,0.1,0,0.3,0.1,0.4c0,0,0.1,0,0.1,0c0.1,0,0.2-0.1,0.3-0.2
				l1.9-4.4c0.3,0,0.7-0.1,1-0.1l-1,2.2c-0.1,0.1,0,0.3,0.1,0.4c0,0,0.1,0,0.1,0c0.1,0,0.2-0.1,0.3-0.2l1.1-2.5c0.4,0,0.9,0,1.3,0
				c0.4,0,0.9,0,1.3,0l1.1,2.5c0,0.1,0.2,0.2,0.3,0.2c0,0,0.1,0,0.1,0c0.1-0.1,0.2-0.2,0.1-0.4l-1-2.2c0.3,0,0.7,0.1,1,0.1l1.9,4.4
				c0,0.1,0.2,0.2,0.3,0.2c0,0,0.1,0,0.1,0c0.1-0.1,0.2-0.2,0.1-0.4l-1.8-4.1c0.4,0,0.7,0.1,1.1,0.2l2.8,6.3c0,0.1,0.2,0.2,0.3,0.2
				c0,0,0.1,0,0.1,0c0.1-0.1,0.2-0.2,0.1-0.4l-2.7-6c2.9,0.6,5.8,1.6,8.4,3.1c1.8,1.8,2.6,3.8,2.2,5.3c-0.2,0.9-1,1.6-2,2
				c-0.6-0.2-1.1-0.4-1.4-0.7c0.1,0.1,0.3,0.1,0.5,0.2c0,0,0.1,0,0.1,0c0,0,0.1,0,0.1,0c1.2-0.3,1.6-1,1.7-1.5
				c0.3-1-0.3-2.4-1.6-3.6c-0.1-0.1-0.1-0.1-0.2-0.1c-0.1,0-0.1,0-0.2,0.1c-1,1-1.6,2.1-1.6,3c-0.1,1.2,0.3,2,1.3,2.6
				c-3.8-2.2-8.1-3.4-12.5-3.4c-4.4,0-8.7,1.2-12.5,3.4c0.9-0.6,1.3-1.5,1.3-2.6c0-0.9-0.6-2-1.6-3c-0.1-0.1-0.1-0.1-0.2-0.1
				c-0.1,0-0.1,0-0.2,0.1c-1.3,1.3-1.8,2.6-1.6,3.6c0.1,0.5,0.5,1.2,1.7,1.5c0,0,0.1,0,0.1,0c0,0,0.1,0,0.1,0c0.2,0,0.3-0.1,0.5-0.2
				c-0.3,0.3-0.8,0.5-1.4,0.7c-1.1-0.3-1.8-1-2.1-2C46.3,13.6,47.1,11.6,48.9,9.8 M74.4,14.5c0-0.7,0.5-1.6,1.3-2.4
				c1,1.1,1.4,2.1,1.2,2.9c-0.1,0.5-0.6,0.9-1.2,1.1c-0.7-0.2-1.1-0.6-1.2-1.1C74.4,14.8,74.4,14.7,74.4,14.5
				C74.4,14.5,74.4,14.5,74.4,14.5C74.4,14.5,74.4,14.5,74.4,14.5 M50.9,14.5C50.9,14.5,50.9,14.5,50.9,14.5c0,0.2,0,0.3,0,0.4
				c-0.1,0.5-0.6,0.9-1.2,1.1c-0.7-0.2-1.1-0.6-1.2-1.1c-0.2-0.8,0.2-1.8,1.2-2.9C50.4,12.9,50.9,13.8,50.9,14.5
				C50.9,14.5,50.9,14.5,50.9,14.5 M47.8,10.2c-1.4,1.7-2,3.6-1.6,5.1c0.2,0.9,0.8,1.6,1.6,2c-2.2,0.2-4.3,0.7-6.4,1.3
				c3.1-2.1,3.9-4.3,3.4-5.7c-0.3-1.1-1.3-1.8-2.6-2C44.1,10.5,45.9,10.3,47.8,10.2 M39.8,11.4c2.3-0.4,4,0.3,4.4,1.6
				c0.5,1.5-0.9,3.9-4.9,6.1c1.2-1.1,2.6-2.6,2.6-3.7c0-0.7-0.5-1.3-1.2-1.4C40,14,39,14.4,38.4,15.9c-0.1,0.1,0,0.3,0.2,0.4
				c0.2,0.1,0.3,0,0.4-0.2c0.4-1.1,1.2-1.5,1.7-1.4c0.4,0.1,0.7,0.4,0.7,0.8c0,1.1-2.1,3.2-4.2,4.7c-0.6,0.3-1.2,0.6-1.8,0.9
				c0.1-0.2,0.3-0.4,0.3-0.7c0.3-1.1-0.3-2.7-0.3-2.7c0-0.1-0.1-0.1-0.2-0.2c-0.1,0-0.2,0-0.2,0.1c-0.1,0-1.4,1.1-1.6,2.2
				C32.9,21,33.8,22,33.8,22c0,0,0,0,0,0c-0.8,0.5-1.6,1-2.3,1.5c0.6-0.7,1.1-1.6,1.1-2.7c0.2-2.3-1.5-5.2-1.9-5.8
				C33.6,13.5,36.6,12.3,39.8,11.4 M32,20.8c-0.1,1.9-1.7,3.2-2.2,3.6c-0.5-0.4-1.9-1.9-1.8-3.8c0.1-1.9,1.7-4.1,2.3-4.9
				C30.9,16.5,32.2,18.9,32,20.8 M21.6,22.3c0.3,0.2,0.8,0.7,0.9,1.3c0.1,0.7-0.2,1.6-0.5,2.1c-0.3-0.4-0.9-1.2-1-1.9
				C21,23.1,21.4,22.5,21.6,22.3 M22.3,21.6c0.3-0.2,0.8-0.6,1.5-0.5c0.7,0.1,1.4,0.7,1.9,1c-0.5,0.2-1.4,0.6-2.1,0.5
				C22.9,22.5,22.5,21.9,22.3,21.6 M20.6,23c-0.1,0.3-0.1,0.6-0.1,0.9c0.2,1.2,1.4,2.4,1.4,2.5c0.1,0.1,0.2,0.1,0.2,0.1
				c0.1,0,0.2-0.1,0.2-0.1c0-0.1,0.7-1.4,0.7-2.5c0-0.1,0-0.2,0-0.3c0-0.2-0.1-0.4-0.2-0.6c0.2,0.1,0.4,0.1,0.6,0.2
				c0.1,0,0.2,0,0.3,0c1.1,0,2.4-0.7,2.5-0.7c0.1,0,0.1-0.1,0.1-0.2c0-0.1,0-0.2-0.1-0.2c0,0-1.3-1.3-2.5-1.4c-0.3,0-0.6,0-0.9,0.1
				c2-1.9,4.3-3.5,6.6-4.9c-0.8,1.1-2,3-2.1,4.8c-0.2,2.6,2,4.4,2.1,4.4c0,0,0,0,0.1,0c-0.9,0.7-1.7,1.4-2.5,2.2
				c-0.8,0.8-1.5,1.6-2.2,2.4c0,0,0,0,0-0.1c-0.1-0.1-1.9-2.3-4.4-2.1c-1.8,0.1-3.8,1.4-4.8,2.1C17.1,27.2,18.7,25,20.6,23 M20.5,28
				c1.9-0.1,3.4,1.3,3.8,1.8c-0.4,0.5-1.7,2.1-3.6,2.2c-1.9,0.1-4.3-1.2-5.2-1.7C16.4,29.7,18.7,28.2,20.5,28 M11.4,39.8
				c0.8-3.2,2-6.2,3.6-9.1c0.6,0.4,3.5,2.1,5.8,1.9c1.1-0.1,2.1-0.6,2.7-1.1C23,32.2,22.5,33,22,33.8c0,0,0,0,0,0c0,0-1-0.9-2.2-0.5
				c-1.1,0.3-2.1,1.6-2.2,1.7c-0.1,0.1-0.1,0.2-0.1,0.2c0,0.1,0.1,0.2,0.2,0.2c0.1,0,1.6,0.6,2.7,0.3c0.3-0.1,0.5-0.2,0.7-0.3
				c-0.3,0.6-0.6,1.2-0.9,1.8c-1.5,2.1-3.6,4.2-4.7,4.2c-0.4,0-0.8-0.3-0.8-0.7c-0.1-0.5,0.2-1.2,1.4-1.7c0.1-0.1,0.2-0.2,0.2-0.4
				c-0.1-0.1-0.2-0.2-0.4-0.2C14.4,39,14,40,14.1,40.7c0.1,0.7,0.7,1.2,1.4,1.2c1.1,0,2.6-1.3,3.7-2.6c-2.2,4-4.6,5.4-6.1,4.9
				C11.7,43.8,11.1,42.1,11.4,39.8 M21.5,34.1c-0.2,0.3-0.5,0.8-1.1,1c-0.6,0.2-1.5,0-2-0.2c0.4-0.4,1-1,1.6-1.1
				C20.6,33.6,21.2,33.9,21.5,34.1 M10.9,42.2c0.3,1.3,1,2.2,2,2.6c1.4,0.4,3.6-0.3,5.7-3.4c-0.6,2.1-1.1,4.2-1.3,6.4
				c-0.5-0.8-1.1-1.4-2-1.6c-1.5-0.4-3.3,0.2-5.1,1.6C10.3,45.9,10.5,44.1,10.9,42.2 M6.7,68l6,2.7c0.1,0.1,0.3,0,0.4-0.1
				c0,0,0-0.1,0-0.1c0-0.1-0.1-0.2-0.2-0.3l-6.3-2.8c-0.1-0.3-0.1-0.7-0.2-1l4.1,1.8c0.1,0.1,0.3,0,0.4-0.1c0,0,0-0.1,0-0.1
				c0-0.1-0.1-0.2-0.2-0.3l-4.4-2c0-0.3-0.1-0.7-0.1-1l2.2,1c0.1,0.1,0.3,0,0.4-0.1c0,0,0-0.1,0-0.1c0-0.1-0.1-0.2-0.2-0.3l-2.5-1.1
				c0-0.4,0-0.9,0-1.3c0-0.4,0-0.9,0-1.3l2.5-1.1c0.1-0.1,0.2-0.1,0.2-0.3c0,0,0-0.1,0-0.1c-0.1-0.1-0.2-0.2-0.4-0.1l-2.2,1
				c0-0.3,0.1-0.7,0.1-1l4.4-2c0.1,0,0.2-0.2,0.2-0.3c0,0,0-0.1,0-0.1c-0.1-0.1-0.2-0.2-0.4-0.1L6.5,59c0-0.4,0.1-0.7,0.2-1.1
				l6.3-2.8c0.1,0,0.2-0.1,0.2-0.3c0,0,0-0.1,0-0.1c-0.1-0.1-0.2-0.2-0.4-0.1l-6,2.7c0.6-2.9,1.6-5.8,3.1-8.4
				c1.8-1.8,3.8-2.6,5.3-2.2c0.9,0.2,1.6,1,2,2c-0.2,0.6-0.4,1.1-0.7,1.4c0.1-0.1,0.1-0.3,0.2-0.5c0,0,0-0.1,0-0.1c0,0,0-0.1,0-0.1
				c-0.3-1.2-1-1.6-1.5-1.7c-1-0.3-2.4,0.3-3.6,1.6c-0.1,0.1-0.1,0.1-0.1,0.2c0,0.1,0,0.1,0.1,0.2c1,1,2.1,1.6,3,1.6
				c1.2,0.1,2-0.4,2.6-1.3c-2.2,3.8-3.4,8.1-3.4,12.5c0,4.4,1.2,8.7,3.4,12.5c-0.6-0.9-1.5-1.3-2.6-1.3c-0.9,0-2,0.6-3,1.6
				c-0.1,0.1-0.1,0.1-0.1,0.2c0,0.1,0,0.1,0.1,0.2c1.3,1.3,2.6,1.8,3.6,1.6c0.5-0.1,1.2-0.5,1.5-1.7c0,0,0-0.1,0-0.1
				c0,0,0-0.1,0-0.1c-0.1-0.2-0.1-0.3-0.2-0.5c0.3,0.3,0.5,0.8,0.7,1.4c-0.3,1.1-1,1.8-2,2c-1.5,0.4-3.5-0.4-5.3-2.2
				C8.3,73.7,7.3,70.9,6.7,68 M16,49.6c-0.2,0.7-0.6,1.1-1.1,1.2c-0.1,0-0.2,0-0.4,0c0,0,0,0,0,0c0,0,0,0,0,0
				c-0.7,0-1.6-0.5-2.4-1.3c1.1-1,2.1-1.4,2.9-1.2C15.4,48.6,15.8,49,16,49.6 M16,75.6c-0.2,0.7-0.6,1.1-1.1,1.2
				c-0.8,0.2-1.8-0.2-2.9-1.2c0.9-0.8,1.7-1.2,2.4-1.3c0,0,0,0,0,0c0,0,0,0,0,0c0.1,0,0.3,0,0.4,0C15.4,74.6,15.8,75,16,75.6
				 M10.2,77.5c1.7,1.4,3.6,2,5.1,1.6c0.9-0.2,1.5-0.8,2-1.6c0.2,2.2,0.7,4.3,1.3,6.4c-2.1-3.1-4.3-3.9-5.7-3.4
				c-1.1,0.3-1.8,1.3-2,2.6C10.5,81.2,10.3,79.4,10.2,77.5 M11.4,85.5c-0.4-2.3,0.3-4,1.6-4.4c1.5-0.5,3.9,0.9,6.1,4.9
				c-1.1-1.2-2.6-2.6-3.7-2.6c-0.7,0-1.3,0.5-1.4,1.2c-0.1,0.7,0.3,1.8,1.7,2.3c0.1,0.1,0.3,0,0.4-0.2c0.1-0.1,0-0.3-0.2-0.4
				c-1.1-0.4-1.5-1.2-1.4-1.7c0.1-0.4,0.4-0.7,0.8-0.7c1.1,0,3.2,2.1,4.7,4.2c0.3,0.6,0.6,1.2,0.9,1.8c-0.2-0.1-0.4-0.2-0.7-0.3
				c-1.1-0.3-2.7,0.3-2.7,0.3c-0.1,0-0.1,0.1-0.2,0.2c0,0.1,0,0.2,0.1,0.2c0,0.1,1.1,1.4,2.2,1.7c1.1,0.3,2.1-0.5,2.2-0.6
				c0,0,0,0,0,0c0.5,0.8,1,1.6,1.5,2.3c-0.7-0.6-1.6-1.1-2.7-1.1c-2.3-0.1-5.2,1.5-5.8,1.9C13.5,91.7,12.3,88.7,11.4,85.5
				 M21.5,91.2c-0.3,0.2-0.9,0.5-1.5,0.3c-0.6-0.2-1.3-0.8-1.6-1.1c0.5-0.1,1.4-0.4,2-0.2C21,90.3,21.3,90.9,21.5,91.2 M20.8,93.3
				c1.9,0.1,3.2,1.7,3.6,2.2c-0.4,0.5-1.9,1.9-3.8,1.8c-1.9-0.1-4.1-1.7-4.9-2.3C16.5,94.4,18.9,93.1,20.8,93.3 M21.1,101.5
				c0.1-0.7,0.7-1.4,1-1.9c0.2,0.5,0.6,1.4,0.5,2.1c-0.1,0.7-0.6,1.1-0.9,1.3C21.4,102.7,21,102.2,21.1,101.5 M23.6,102.7
				c0.7-0.1,1.6,0.2,2.1,0.5c-0.4,0.3-1.2,0.9-1.9,1c-0.7,0.1-1.3-0.3-1.5-0.5C22.5,103.4,22.9,102.8,23.6,102.7 M23,104.7
				c0.3,0.1,0.6,0.1,0.9,0.1c1.2-0.2,2.4-1.4,2.5-1.4c0.1-0.1,0.1-0.2,0.1-0.2c0-0.1-0.1-0.2-0.1-0.2c-0.1,0-1.4-0.7-2.5-0.7
				c-0.1,0-0.2,0-0.3,0c-0.2,0-0.4,0.1-0.6,0.2c0.1-0.2,0.1-0.4,0.2-0.6c0-0.1,0-0.2,0-0.3c0-1.1-0.7-2.4-0.7-2.5
				c0-0.1-0.1-0.1-0.2-0.1c-0.1,0-0.2,0-0.2,0.1c-0.1,0.1-1.3,1.3-1.4,2.5c0,0.3,0,0.6,0.1,0.9c-1.9-2-3.5-4.3-4.9-6.6
				c1.1,0.8,3,2,4.8,2.1c2.6,0.2,4.4-2,4.4-2.1c0,0,0,0,0-0.1c0.7,0.8,1.4,1.7,2.2,2.4c0.8,0.8,1.6,1.5,2.5,2.2c0,0,0,0-0.1,0
				c-0.1,0.1-2.3,1.9-2.1,4.4c0.1,1.8,1.4,3.8,2.1,4.8C27.2,108.2,25,106.6,23,104.7 M28,104.8c-0.1-1.9,1.3-3.4,1.8-3.8
				c0.5,0.4,2.1,1.7,2.2,3.6c0.1,1.9-1.2,4.3-1.7,5.2C29.7,108.9,28.2,106.6,28,104.8 M39.8,113.8c-3.2-0.8-6.2-2-9.1-3.6
				c0.4-0.6,2-3.5,1.9-5.8c-0.1-1.1-0.6-2.1-1.1-2.7c0.8,0.6,1.5,1.1,2.3,1.6c0,0,0,0,0,0c0,0-0.9,1-0.6,2.2
				c0.3,1.1,1.6,2.1,1.6,2.2c0.1,0.1,0.2,0.1,0.2,0.1c0.1,0,0.2-0.1,0.2-0.2c0-0.1,0.6-1.6,0.3-2.7c-0.1-0.3-0.2-0.5-0.3-0.7
				c0.6,0.3,1.2,0.6,1.8,0.9c2.1,1.5,4.2,3.6,4.2,4.7c0,0.4-0.3,0.8-0.7,0.8c-0.5,0.1-1.2-0.2-1.7-1.4c-0.1-0.1-0.2-0.2-0.4-0.2
				c-0.1,0.1-0.2,0.2-0.2,0.4c0.5,1.5,1.6,1.9,2.3,1.7c0.7-0.1,1.2-0.7,1.2-1.4c0-1.1-1.4-2.6-2.6-3.7c4,2.2,5.4,4.6,4.9,6.1
				C43.8,113.6,42.1,114.2,39.8,113.8 M42.2,114.4c1.3-0.3,2.2-1,2.6-2c0.4-1.4-0.3-3.6-3.4-5.7c2.1,0.6,4.2,1.1,6.4,1.3
				c-0.8,0.5-1.4,1.1-1.6,2c-0.4,1.5,0.2,3.3,1.6,5.1C45.9,115,44.1,114.7,42.2,114.4 M76.3,115.5c-2.6,1.5-5.4,2.5-8.4,3.1l2.7-6
				c0.1-0.1,0-0.3-0.1-0.4c0,0-0.1,0-0.1,0c-0.1,0-0.2,0.1-0.3,0.2l-2.8,6.3c-0.4,0.1-0.7,0.1-1.1,0.2l1.8-4.1
				c0.1-0.1,0-0.3-0.1-0.4c0,0-0.1,0-0.1,0c-0.1,0-0.2,0.1-0.3,0.2l-1.9,4.4c-0.3,0-0.7,0.1-1,0.1l1-2.2c0.1-0.1,0-0.3-0.1-0.4
				c0,0-0.1,0-0.1,0c-0.1,0-0.2,0.1-0.3,0.2l-1.1,2.5c-0.4,0-0.9,0-1.3,0c-0.4,0-0.9,0-1.3,0l-1.1-2.5c0-0.1-0.1-0.2-0.3-0.2
				c0,0-0.1,0-0.1,0c-0.1,0.1-0.2,0.2-0.1,0.4l1,2.2c-0.3,0-0.7-0.1-1-0.1l-1.9-4.4c0-0.1-0.2-0.2-0.3-0.2c0,0-0.1,0-0.1,0
				c-0.1,0.1-0.2,0.2-0.1,0.4l1.8,4.1c-0.4,0-0.7-0.1-1-0.2l-2.8-6.3c0-0.1-0.1-0.2-0.3-0.2c0,0-0.1,0-0.1,0
				c-0.1,0.1-0.2,0.2-0.1,0.4l2.7,6c-2.9-0.6-5.8-1.6-8.4-3.1c-1.8-1.8-2.6-3.8-2.2-5.3c0.2-0.9,1-1.6,2.1-2
				c0.6,0.2,1.1,0.4,1.4,0.7c-0.1-0.1-0.3-0.1-0.5-0.2c0,0-0.1,0-0.1,0c0,0-0.1,0-0.1,0c-1.2,0.3-1.6,1-1.7,1.5
				c-0.3,1,0.3,2.4,1.6,3.6c0.1,0.1,0.1,0.1,0.2,0.1c0.1,0,0.1,0,0.2-0.1c1-1,1.6-2.1,1.6-3.1c0.1-1.2-0.4-2-1.3-2.6
				c3.8,2.2,8.1,3.4,12.5,3.4c4.4,0,8.7-1.2,12.5-3.4c-0.9,0.6-1.3,1.5-1.3,2.6c0,0.9,0.6,2,1.6,3.1c0.1,0.1,0.1,0.1,0.2,0.1
				c0.1,0,0.1,0,0.2-0.1c1.3-1.3,1.8-2.6,1.6-3.6c-0.1-0.5-0.5-1.2-1.7-1.5c0,0-0.1,0-0.1,0c0,0-0.1,0-0.1,0
				c-0.2,0.1-0.3,0.1-0.5,0.2c0.3-0.3,0.8-0.5,1.4-0.7c1.1,0.3,1.8,1,2,2C79,111.7,78.1,113.7,76.3,115.5 M50.9,110.8
				c0,0.7-0.5,1.6-1.3,2.4c-1-1.1-1.4-2.1-1.2-2.9c0.1-0.5,0.5-0.9,1.2-1.1c0.7,0.2,1.1,0.6,1.2,1.1
				C50.9,110.5,50.9,110.6,50.9,110.8C50.9,110.8,50.9,110.8,50.9,110.8C50.9,110.8,50.9,110.8,50.9,110.8 M74.4,110.8
				C74.4,110.8,74.4,110.8,74.4,110.8c0-0.2,0-0.3,0-0.4c0.1-0.5,0.6-0.9,1.2-1.1c0.7,0.2,1.1,0.6,1.2,1.1c0.2,0.8-0.2,1.8-1.2,2.9
				C74.8,112.4,74.4,111.5,74.4,110.8C74.4,110.8,74.4,110.8,74.4,110.8 M77.5,115.1c1.4-1.7,2-3.6,1.6-5.1c-0.2-0.9-0.8-1.5-1.6-2
				c2.2-0.2,4.3-0.7,6.4-1.3c-3.1,2.1-3.9,4.3-3.4,5.7c0.3,1.1,1.3,1.8,2.6,2C81.2,114.7,79.4,115,77.5,115.1 M85.5,113.8
				c-2.3,0.4-4-0.3-4.4-1.6c-0.5-1.5,0.9-3.9,4.9-6.1c-1.2,1.1-2.6,2.6-2.6,3.7c0,0.7,0.5,1.3,1.2,1.4c0.7,0.1,1.8-0.3,2.3-1.7
				c0.1-0.2,0-0.3-0.2-0.4c-0.2-0.1-0.3,0-0.4,0.2c-0.4,1.1-1.2,1.5-1.7,1.4c-0.4-0.1-0.7-0.4-0.7-0.8c0-1.1,2.1-3.2,4.2-4.7
				c0.6-0.3,1.2-0.6,1.8-0.9c-0.1,0.2-0.3,0.4-0.3,0.7c-0.3,1.1,0.3,2.6,0.3,2.7c0,0.1,0.1,0.1,0.2,0.2c0.1,0,0.2,0,0.2-0.1
				c0.1,0,1.4-1.1,1.6-2.2c0.3-1.1-0.5-2.1-0.5-2.2c0,0,0,0,0,0c0.8-0.5,1.6-1,2.3-1.6c-0.6,0.7-1.1,1.6-1.1,2.7
				c-0.2,2.3,1.5,5.2,1.9,5.8C91.7,111.8,88.7,113,85.5,113.8 M93.3,104.5c0.1-1.9,1.7-3.2,2.2-3.6c0.5,0.4,1.9,1.9,1.8,3.8
				c-0.1,1.9-1.7,4.1-2.3,4.9C94.4,108.8,93.1,106.4,93.3,104.5 M103.7,103c-0.3-0.2-0.8-0.7-0.9-1.3c-0.1-0.7,0.2-1.6,0.5-2.1
				c0.3,0.4,0.9,1.2,1,1.9C104.3,102.2,103.9,102.7,103.7,103 M103,103.7c-0.3,0.2-0.8,0.6-1.5,0.5c-0.7-0.1-1.4-0.7-1.9-1
				c0.5-0.2,1.4-0.6,2.1-0.5C102.4,102.8,102.8,103.4,103,103.7 M104.7,102.3c0.1-0.3,0.1-0.6,0.1-0.9c-0.2-1.2-1.4-2.4-1.4-2.5
				c-0.1-0.1-0.2-0.1-0.2-0.1c-0.1,0-0.2,0.1-0.2,0.1c0,0.1-0.7,1.4-0.7,2.5c0,0.1,0,0.2,0,0.3c0,0.2,0.1,0.4,0.2,0.6
				c-0.2-0.1-0.4-0.1-0.6-0.2c-0.1,0-0.2,0-0.3,0c-1.1,0-2.4,0.7-2.5,0.7c-0.1,0-0.1,0.1-0.1,0.2c0,0.1,0,0.2,0.1,0.2
				c0.1,0.1,1.3,1.3,2.5,1.4c0.3,0,0.6,0,0.9-0.1c-2,1.9-4.3,3.5-6.6,4.9c0.8-1.1,2-3,2.1-4.8c0.2-2.6-2-4.4-2.1-4.4c0,0,0,0-0.1,0
				c0.8-0.7,1.7-1.4,2.4-2.2c0.8-0.8,1.5-1.6,2.2-2.4c0,0,0,0,0,0.1c0.1,0.1,1.9,2.3,4.4,2.1c1.8-0.1,3.8-1.4,4.8-2.1
				C108.2,98,106.6,100.3,104.7,102.3 M104.8,97.2c-1.9,0.1-3.4-1.3-3.8-1.8c0.4-0.5,1.7-2.1,3.6-2.2c1.9-0.1,4.3,1.2,5.2,1.7
				C108.9,95.5,106.6,97.1,104.8,97.2 M113.8,85.5c-0.8,3.2-2,6.2-3.6,9.1c-0.6-0.4-3.5-2-5.8-1.9c-1.1,0.1-2.1,0.6-2.7,1.1
				c0.5-0.8,1.1-1.5,1.6-2.3c0,0,0,0,0,0c0,0,1,0.9,2.2,0.6c1.1-0.3,2.1-1.6,2.2-1.7c0.1-0.1,0.1-0.2,0.1-0.2c0-0.1-0.1-0.2-0.2-0.2
				c-0.1,0-1.6-0.6-2.7-0.3c-0.3,0.1-0.5,0.2-0.7,0.3c0.3-0.6,0.6-1.2,0.9-1.8c1.5-2.1,3.6-4.2,4.7-4.2c0.4,0,0.8,0.3,0.8,0.7
				c0.1,0.5-0.2,1.2-1.4,1.7c-0.1,0.1-0.2,0.2-0.2,0.4c0.1,0.1,0.2,0.2,0.4,0.2c1.5-0.5,1.9-1.6,1.7-2.3c-0.1-0.7-0.7-1.2-1.4-1.2
				c-1.1,0-2.6,1.4-3.7,2.6c2.2-4,4.6-5.4,6.1-4.9C113.6,81.4,114.2,83.2,113.8,85.5 M103.8,91.2c0.2-0.3,0.5-0.9,1.1-1
				c0.6-0.2,1.5,0,2,0.2c-0.4,0.4-1,1-1.6,1.1C104.7,91.7,104.1,91.4,103.8,91.2 M114.4,83.1c-0.3-1.3-1-2.2-2-2.6
				c-1.4-0.4-3.6,0.3-5.7,3.4c0.6-2.1,1.1-4.2,1.3-6.4c0.5,0.8,1.1,1.4,2,1.6c1.5,0.4,3.3-0.2,5.1-1.6
				C115,79.4,114.7,81.2,114.4,83.1 M119,63.9l-2.5,1.1c-0.1,0-0.2,0.1-0.2,0.3c0,0,0,0.1,0,0.1c0.1,0.1,0.2,0.2,0.4,0.1l2.2-1
				c0,0.3-0.1,0.7-0.1,1l-4.4,2c-0.1,0-0.2,0.2-0.2,0.3c0,0,0,0.1,0,0.1c0.1,0.1,0.2,0.2,0.4,0.1l4.1-1.8c0,0.3-0.1,0.7-0.2,1
				l-6.3,2.8c-0.1,0-0.2,0.2-0.2,0.3c0,0,0,0.1,0,0.1c0.1,0.1,0.2,0.2,0.4,0.1l6-2.7c-0.6,2.9-1.6,5.8-3.1,8.4
				c-1.8,1.8-3.8,2.6-5.3,2.2c-0.9-0.2-1.6-1-2-2c0.2-0.6,0.4-1.1,0.7-1.4c-0.1,0.1-0.1,0.3-0.2,0.5c0,0,0,0,0,0.1c0,0,0,0.1,0,0.1
				c0.3,1.2,1,1.6,1.5,1.7c1,0.3,2.3-0.3,3.6-1.6c0.1-0.1,0.1-0.1,0.1-0.2c0-0.1,0-0.1-0.1-0.2c-1-1-2.1-1.6-3.1-1.6
				c-1.2-0.1-2,0.4-2.6,1.3c2.2-3.8,3.4-8.1,3.4-12.5c0-4.4-1.2-8.7-3.4-12.5c0.6,0.9,1.5,1.3,2.6,1.3c0.9,0,2-0.6,3.1-1.6
				c0.1-0.1,0.1-0.1,0.1-0.2c0-0.1,0-0.1-0.1-0.2c-1.3-1.3-2.6-1.8-3.6-1.6c-0.5,0.1-1.2,0.5-1.5,1.7c0,0,0,0.1,0,0.1
				c0,0,0,0.1,0,0.1c0.1,0.2,0.1,0.3,0.2,0.5c-0.3-0.3-0.5-0.8-0.7-1.4c0.3-1.1,1-1.8,2-2c1.5-0.4,3.5,0.4,5.3,2.2
				c1.5,2.6,2.5,5.4,3.1,8.4l-6-2.7c-0.1-0.1-0.3,0-0.4,0.1c0,0,0,0.1,0,0.1c0,0.1,0.1,0.2,0.2,0.3l6.3,2.8c0.1,0.3,0.1,0.7,0.2,1.1
				l-4.1-1.8c-0.1-0.1-0.3,0-0.4,0.1c0,0,0,0.1,0,0.1c0,0.1,0.1,0.2,0.2,0.3l4.4,2c0,0.3,0.1,0.7,0.1,1l-2.2-1
				c-0.1-0.1-0.3,0-0.4,0.1c0,0,0,0.1,0,0.1c0,0.1,0.1,0.2,0.2,0.3l2.5,1.1c0,0.4,0,0.9,0,1.3C119.1,63.1,119.1,63.5,119,63.9
				 M109.3,75.6c0.2-0.7,0.6-1.1,1.1-1.2c0.1,0,0.2,0,0.4,0c0,0,0,0,0,0c0,0,0,0,0,0c0.7,0,1.6,0.5,2.4,1.3c-1.1,1-2.1,1.4-2.9,1.2
				C109.9,76.7,109.5,76.3,109.3,75.6 M109.3,49.6c0.2-0.7,0.6-1.1,1.1-1.2c0.8-0.2,1.8,0.2,2.9,1.2c-0.9,0.8-1.7,1.2-2.4,1.3
				c0,0,0,0,0,0c0,0,0,0,0,0c-0.1,0-0.3,0-0.4,0C109.9,50.7,109.5,50.3,109.3,49.6"/>
			<path class="st0" d="M110.3,37.4c0.8,0,1.4-0.6,1.4-1.4c0-0.8-0.6-1.4-1.4-1.4c-0.8,0-1.4,0.6-1.4,1.4
				C108.9,36.8,109.6,37.4,110.3,37.4 M110.3,35.2c0.5,0,0.9,0.4,0.9,0.9c0,0.5-0.4,0.9-0.9,0.9c-0.5,0-0.9-0.4-0.9-0.9
				C109.5,35.5,109.9,35.2,110.3,35.2"/>
			<path class="st0" d="M113.6,53.6c0.7,0.2,1.5-0.2,2.3-1c0.1-0.1,0.1-0.3,0-0.4c-0.8-0.8-1.6-1.1-2.3-1c-0.3,0.1-0.8,0.3-1,1.1
				c0,0,0,0.1,0,0.1c0,0,0,0.1,0,0.1C112.8,53.3,113.3,53.6,113.6,53.6 M113.7,51.9c0.4-0.1,0.9,0.1,1.5,0.6
				c-0.6,0.5-1.1,0.7-1.5,0.6c-0.3-0.1-0.4-0.3-0.6-0.6C113.3,52.1,113.5,51.9,113.7,51.9"/>
			<path class="st0" d="M110.3,87.9c-0.8,0-1.4,0.6-1.4,1.4c0,0.8,0.6,1.4,1.4,1.4c0.8,0,1.4-0.6,1.4-1.4
				C111.8,88.5,111.1,87.9,110.3,87.9 M110.3,90.1c-0.5,0-0.9-0.4-0.9-0.9c0-0.5,0.4-0.9,0.9-0.9c0.5,0,0.9,0.4,0.9,0.9
				C111.2,89.7,110.8,90.1,110.3,90.1"/>
			<path class="st0" d="M113.6,74c0.7,0.2,1.5-0.2,2.3-1c0.1-0.1,0.1-0.3,0-0.4c-0.8-0.8-1.6-1.1-2.3-1c-0.3,0.1-0.8,0.3-1,1.1
				c0,0,0,0,0,0.1c0,0,0,0.1,0,0.1C112.8,73.6,113.3,73.9,113.6,74 M113.7,72.2c0.4-0.1,0.9,0.1,1.5,0.6c-0.6,0.5-1.1,0.7-1.5,0.6
				c-0.3-0.1-0.4-0.3-0.6-0.6C113.3,72.5,113.5,72.3,113.7,72.2"/>
		</g>
		<g>
			<path class="st0" d="M45.9,95.4c-0.7,0.3-1.5,0.1-2.2-0.3c-0.9-0.5-1.4-1.3-1.3-2.3l0.9-0.1c0,0.8,0.2,1.3,0.9,1.7
				c0.4,0.2,1,0.4,1.4,0.1c0.2-0.1,0.4-0.3,0.6-0.8l1.4-2.5l0.8,0.4L47,94.2C46.5,95.1,46.3,95.3,45.9,95.4"/>
			<path class="st0" d="M54.5,99.3l-0.3-1.3l-3-0.8l-0.9,1l-1-0.3l4.1-4.2l0.8,0.2l1.3,5.7L54.5,99.3z M53.5,94.6l-1.7,1.7L54,97
				L53.5,94.6z"/>
			<path class="st0" d="M63.8,97.9c-0.4,0.4-0.7,0.4-1.6,0.3l-2-0.1l-0.1,1.9l-0.9,0l0.2-5.2l3.2,0.1c0.6,0,0.8,0.1,1.1,0.3
				c0.5,0.3,0.7,0.9,0.7,1.5C64.3,97.1,64.1,97.6,63.8,97.9 M62.3,95.8l-2.1-0.1l-0.1,1.5l2,0.1c0.9,0,1.2-0.1,1.3-0.7
				C63.5,96,63.1,95.8,62.3,95.8"/>
			<path class="st0" d="M71,99.3c-1.6,0.4-3.3-0.3-3.6-2l0-0.1c-0.4-1.7,1-2.9,2.5-3.3c1.6-0.4,3.3,0.2,3.7,2
				C73.9,97.6,72.6,98.9,71,99.3 M70.1,94.8c-1.1,0.3-2.1,1.1-1.8,2.3c0.3,1.2,1.5,1.5,2.6,1.3c1.1-0.2,2.1-1.1,1.9-2.3
				C72.4,94.9,71.2,94.6,70.1,94.8"/>
			<polygon class="st0" points="82.1,94.7 77.4,92.9 79.3,96.2 78.5,96.6 76,92.1 76.8,91.7 81.5,93.5 79.6,90.1 80.4,89.7 
				82.9,94.3 			"/>
		</g>
	</g>
</g>
</svg>
